<svg width="100" height="101" viewBox="0 0 100 101" fill="none" xmlns="http://www.w3.org/2000/svg">
<path d="M27.366 76.9207C29.6243 77.945 32.0315 79.4946 33.2512 82.0789C34.4267 84.5701 33.9684 87.4429 32.6885 89.7414C31.148 92.507 28.7457 94.4021 26.2483 95.7871C23.4046 97.3643 20.363 98.3865 17.3175 99.2558C15.773 99.6968 14.2199 100.095 12.6669 100.492C12.3429 100.575 12.2042 99.9865 12.5294 99.9035C15.6613 99.1038 18.8023 98.3015 21.8564 97.1439C24.6826 96.0726 27.575 94.7005 29.8894 92.451C31.7619 90.6312 33.5421 87.9736 33.4316 84.9509C33.3201 81.9043 31.157 79.7771 29.0367 78.4678" fill="#D6D6E3"/>
<path d="M42.5593 75.6787C47.1528 75.6787 50.8765 71.2786 50.8765 65.8508C50.8765 60.423 47.1528 56.0229 42.5593 56.0229C37.9659 56.0229 34.2422 60.423 34.2422 65.8508C34.2422 71.2786 37.9659 75.6787 42.5593 75.6787Z" fill="#2218DE"/>
<path opacity="0.2" d="M36.4182 59.2863C35.6424 61.4306 35.5371 63.8311 36.1212 66.0588C36.7053 68.2865 37.9408 70.1961 39.6068 71.4465C41.2728 72.6969 43.2607 73.2065 45.2155 72.8843C47.1702 72.5621 48.9643 71.4291 50.2771 69.6877C49.8032 70.9979 49.0939 72.1706 48.1983 73.1247C47.3028 74.0788 46.2424 74.7914 45.0907 75.2131C43.9389 75.6348 42.7233 75.7556 41.5281 75.5672C40.333 75.3787 39.1867 74.8854 38.1689 74.1215C37.1511 73.3575 36.286 72.3413 35.6335 71.1431C34.9811 69.9449 34.5569 68.5934 34.3904 67.1822C34.2238 65.7711 34.319 64.334 34.6691 62.9706C35.0193 61.6072 35.6161 60.35 36.4182 59.2863Z" fill="black"/>
<path d="M42.5821 65.8505H42.605L43.0163 93.7141H42.1479L42.5821 65.8505Z" fill="#CBCBCB"/>
<path d="M57.0501 61.8064C62.5828 61.8064 67.0679 56.5066 67.0679 49.969C67.0679 43.4313 62.5828 38.1315 57.0501 38.1315C51.5174 38.1315 47.0322 43.4313 47.0322 49.969C47.0322 56.5066 51.5174 61.8064 57.0501 61.8064Z" fill="#2218DE"/>
<path opacity="0.2" d="M64.4471 42.0628C65.3814 44.6457 65.5081 47.5369 64.8045 50.22C64.1009 52.9031 62.6129 55.2031 60.6063 56.7091C58.5997 58.2151 56.2052 58.829 53.8509 58.441C51.4965 58.0531 49.3356 56.6885 47.7543 54.5913C48.3251 56.1692 49.1795 57.5817 50.2581 58.7308C51.3368 59.8799 52.614 60.7382 54.0013 61.2461C55.3885 61.7541 56.8526 61.8996 58.2922 61.6725C59.7317 61.4455 61.1123 60.8513 62.3382 59.9312C63.5642 59.0111 64.6061 57.7871 65.392 56.3439C66.1778 54.9007 66.6888 53.2729 66.8894 51.5732C67.09 49.8736 66.9754 48.1427 66.5537 46.5005C66.132 44.8583 65.4132 43.3441 64.4471 42.0628Z" fill="black"/>
<path d="M57.0226 49.9691H56.9951L56.4996 83.5307H57.5455L57.0226 49.9691Z" fill="#CBCBCB"/>
<path d="M38.4531 38.8808L39.8133 37.5952C38.7566 37.4575 38.3225 38.1384 38.1448 38.6774C37.3194 38.2724 36.4205 38.8032 36.4205 38.8032L39.1421 39.9706C39.0048 39.5373 38.7658 39.1593 38.4531 38.8808Z" fill="#D6D6E3"/>
<path d="M35.0246 27.7882L36.3848 26.5026C35.3281 26.3649 34.8939 27.0458 34.7162 27.5849C33.8908 27.1798 32.9919 27.7106 32.9919 27.7106L35.7135 28.878C35.5762 28.4447 35.3372 28.0666 35.0246 27.788V27.7882Z" fill="#2218DE"/>
<path d="M54.2932 34.9599L55.6534 33.6744C54.5967 33.5366 54.1626 34.2176 53.9849 34.7566C53.1595 34.3516 52.2606 34.8824 52.2606 34.8824L54.9821 36.0497C54.8449 35.6164 54.6059 35.2385 54.2932 34.9599Z" fill="#D6D6E3"/>
<path d="M52.9489 83.4791C52.9489 83.4791 53.0009 82.1905 54.0678 82.3403L52.9489 83.4791Z" fill="#CBCBCB"/>
<path d="M60.1967 83.4791C60.1967 83.4791 60.2487 82.1905 61.3156 82.3403L60.1967 83.4791Z" fill="#CBCBCB"/>
<path d="M58.0865 83.4791C58.0865 83.4791 58.1386 82.1905 59.2055 82.3403L58.0865 83.4791Z" fill="#CBCBCB"/>
<path d="M51.0075 83.4791C51.0075 83.4791 50.9555 82.1905 49.8885 82.3403L51.0075 83.4791Z" fill="#CBCBCB"/>
<path d="M55.5296 83.5681C55.5296 83.5681 55.4776 82.2794 54.4106 82.4292L55.5296 83.5681Z" fill="#CBCBCB"/>
<path d="M38.9314 93.6013C38.9314 93.6013 38.9834 92.3127 40.0504 92.4625L38.9314 93.6013Z" fill="#CBCBCB"/>
<path d="M46.1793 93.6013C46.1793 93.6013 46.2313 92.3127 47.2983 92.4625L46.1793 93.6013Z" fill="#CBCBCB"/>
<path d="M44.0688 93.6013C44.0688 93.6013 44.1209 92.3127 45.1878 92.4625L44.0688 93.6013Z" fill="#CBCBCB"/>
<path d="M36.9902 93.6013C36.9902 93.6013 36.9382 92.3127 35.8712 92.4625L36.9902 93.6013Z" fill="#CBCBCB"/>
<path d="M41.5122 93.6906C41.5122 93.6906 41.4601 92.4019 40.3932 92.5517L41.5122 93.6906Z" fill="#CBCBCB"/>
<path d="M68.9503 47.6802L68.7454 47.4922L73.9953 39.5045H80.8615V39.8113H74.1224L68.9503 47.6802Z" fill="#3F3D56"/>
<path d="M14.2529 59.2705L14.0816 69.2322L19.3186 74.2433L19.1552 74.4817L13.8198 69.3764L13.8211 69.3015L13.9935 59.2642L14.2529 59.2705Z" fill="#3F3D56"/>
<path d="M35.0514 21.9165L34.8464 21.7286L40.0964 13.7408H46.9626V14.0476H40.2235L35.0514 21.9165Z" fill="#3F3D56"/>
<path d="M19.736 75.6534C22.0087 76.9956 23.3923 78.7683 23.3923 80.7126C23.3923 84.9012 16.9781 88.2966 9.06571 88.2966C5.62563 88.2966 2.46967 87.6543 0 86.5845C2.62311 88.1337 6.43084 89.1092 10.6703 89.1092C18.5825 89.1092 24.9968 85.7137 24.9968 81.5252C24.9968 79.1581 22.9467 77.0442 19.736 75.6534Z" fill="#F1F1F1"/>
<path d="M24.7911 78.5306C27.3556 80.0452 28.9169 82.0454 28.9169 84.2394C28.9169 88.9658 21.6792 92.7971 12.751 92.7971C8.86941 92.7971 5.30828 92.0723 2.52173 90.8652C5.4816 92.6132 9.77817 93.714 14.5618 93.714C23.4898 93.714 30.7276 89.8825 30.7276 85.1563C30.7274 82.485 28.414 80.0997 24.7911 78.5306Z" fill="#F1F1F1"/>
<path d="M17.8012 76.9207C19.4019 77.8664 20.3773 79.1151 20.3773 80.4851C20.3773 83.436 15.8583 85.8282 10.2839 85.8282C8.11218 85.8614 5.95177 85.4534 3.89697 84.622C5.745 85.7134 8.42764 86.4007 11.4144 86.4007C16.9888 86.4007 21.5078 84.0085 21.5078 81.0575C21.5077 79.3895 20.0633 77.9005 17.8012 76.9207Z" fill="#F1F1F1"/>
<path d="M49.4786 29.6741C49.396 29.3547 49.2362 29.0708 49.0188 28.8574C48.8015 28.6439 48.536 28.5102 48.2552 28.4726C48.2488 28.4716 48.2427 28.4726 48.2366 28.4726C48.2284 28.4696 48.22 28.4674 48.2116 28.4658C46.8753 28.2617 45.3327 29.017 44.7757 30.514C44.6398 30.2951 44.4609 30.1185 44.2543 29.9995C44.0478 29.8806 43.8198 29.8229 43.5901 29.8313C43.294 29.8546 43.0111 29.9852 42.78 30.2053C42.5489 30.4254 42.3809 30.7243 42.2987 31.0613C42.2899 31.1025 42.2925 31.1459 42.306 31.1853C42.3194 31.2247 42.3432 31.2579 42.3737 31.2803C42.462 31.3687 42.5665 31.4314 42.679 31.4634C42.9217 31.5242 43.1652 31.5799 43.4097 31.6304C43.8866 31.7289 44.366 31.8086 44.8478 31.8696C45.826 31.9935 46.8103 32.0374 47.7936 32.0011C48.1212 31.989 48.437 31.9763 48.737 31.8055C48.9554 31.6781 49.1419 31.4857 49.2783 31.2474C49.4069 31.0183 49.4915 30.7588 49.5261 30.487C49.5607 30.2152 49.5445 29.9377 49.4786 29.6741Z" fill="#F0F0F0"/>
<path d="M98.3868 34.8824H88.3709C88.1003 34.8824 87.881 35.1416 87.881 35.4613C87.881 35.781 88.1003 36.0402 88.3709 36.0402H98.3868C98.6574 36.0402 98.8768 35.781 98.8768 35.4613C98.8768 35.1416 98.6574 34.8824 98.3868 34.8824Z" fill="#3F3D56"/>
<path d="M98.3868 39.1473H88.3709C88.1003 39.1473 87.881 39.4065 87.881 39.7262C87.881 40.0459 88.1003 40.3051 88.3709 40.3051H98.3868C98.6574 40.3051 98.8768 40.0459 98.8768 39.7262C98.8768 39.4065 98.6574 39.1473 98.3868 39.1473Z" fill="#3F3D56"/>
<path d="M98.3868 42.9683H88.3709C88.1003 42.9683 87.881 43.2274 87.881 43.5471C87.881 43.8668 88.1003 44.126 88.3709 44.126H98.3868C98.6574 44.126 98.8768 43.8668 98.8768 43.5471C98.8768 43.2274 98.6574 42.9683 98.3868 42.9683Z" fill="#3F3D56"/>
<path d="M83.7451 35.4614C83.745 35.1626 83.8199 34.8705 83.9603 34.622C84.1007 34.3735 84.3004 34.1798 84.534 34.0654C84.7676 33.9509 85.0246 33.9209 85.2726 33.9792C85.5207 34.0374 85.7485 34.1812 85.9273 34.3924C86.1062 34.6037 86.228 34.8728 86.2774 35.1659C86.3267 35.4589 86.3014 35.7627 86.2047 36.0388C86.1079 36.3148 85.9441 36.5508 85.7338 36.7168C85.5236 36.8828 85.2764 36.9714 85.0235 36.9714C84.6847 36.971 84.3598 36.8118 84.1201 36.5287C83.8805 36.2457 83.7456 35.8618 83.7451 35.4614Z" fill="#2218DE"/>
<path d="M83.7451 39.7264C83.7451 39.4276 83.8201 39.1355 83.9606 38.8871C84.101 38.6387 84.3007 38.4451 84.5343 38.3308C84.7679 38.2164 85.025 38.1865 85.2729 38.2448C85.5209 38.3031 85.7487 38.4469 85.9275 38.6582C86.1063 38.8695 86.2281 39.1386 86.2774 39.4317C86.3267 39.7247 86.3014 40.0284 86.2046 40.3045C86.1079 40.5805 85.944 40.8164 85.7338 40.9824C85.5236 41.1484 85.2764 41.237 85.0235 41.237C84.6846 41.2366 84.3596 41.0773 84.12 40.7941C83.8803 40.5109 83.7455 40.1269 83.7451 39.7264Z" fill="#2218DE"/>
<path d="M83.7451 43.5474C83.7451 43.2486 83.8201 42.9565 83.9606 42.7081C84.101 42.4597 84.3007 42.2661 84.5343 42.1517C84.7679 42.0374 85.025 42.0075 85.2729 42.0658C85.5209 42.1241 85.7487 42.2679 85.9275 42.4792C86.1063 42.6905 86.2281 42.9596 86.2774 43.2527C86.3267 43.5457 86.3014 43.8494 86.2046 44.1255C86.1079 44.4015 85.944 44.6374 85.7338 44.8034C85.5236 44.9694 85.2764 45.058 85.0235 45.058C84.6846 45.0576 84.3596 44.8983 84.12 44.6151C83.8803 44.3319 83.7455 43.9479 83.7451 43.5474Z" fill="#2218DE"/>
<path d="M83.0977 26.4364C82.9522 26.5413 82.832 26.6886 82.7486 26.8641C82.6652 27.0397 82.6214 27.2376 82.6213 27.439V27.6119H82.7384V27.439C82.7386 27.2103 82.8027 26.9881 82.9206 26.8069C83.0386 26.6256 83.2038 26.4954 83.3908 26.4364H83.0977ZM97.4654 26.2635H83.6161C83.3524 26.2638 83.0995 26.3878 82.913 26.6082C82.7265 26.8285 82.6216 27.1273 82.6213 27.439V51.5694C82.6217 51.881 82.7266 52.1797 82.9131 52.4001C83.0996 52.6204 83.3524 52.7444 83.6161 52.7449H99.0055C99.2692 52.7444 99.5221 52.6204 99.7085 52.4001C99.895 52.1797 99.9999 51.881 100 51.5694V28.9379L97.4654 26.2635ZM99.8831 51.5697C99.8829 51.8446 99.7903 52.1083 99.6258 52.3027C99.4612 52.4972 99.2381 52.6065 99.0054 52.6068H83.6161C83.3834 52.6065 83.1603 52.4972 82.9958 52.3027C82.8312 52.1083 82.7387 51.8446 82.7384 51.5697V27.4393C82.7386 27.2106 82.8027 26.9884 82.9206 26.8072C83.0386 26.6259 83.2038 26.4957 83.3908 26.4367C83.4642 26.4136 83.5399 26.4019 83.6159 26.4021H97.4208L99.8831 28.9998V51.5697ZM83.0977 26.4364C82.9522 26.5413 82.832 26.6886 82.7486 26.8641C82.6652 27.0397 82.6214 27.2376 82.6213 27.439V27.6119H82.7384V27.439C82.7386 27.2103 82.8027 26.9881 82.9206 26.8069C83.0386 26.6256 83.2038 26.4954 83.3908 26.4364H83.0977Z" fill="#3F3D56"/>
<path d="M99.9417 29.0292H98.3617C98.098 29.0289 97.8452 28.905 97.6587 28.6846C97.4722 28.4643 97.3673 28.1655 97.3669 27.8539V26.3326C97.3669 26.3143 97.3731 26.2967 97.3841 26.2837C97.3951 26.2708 97.4099 26.2635 97.4255 26.2635C97.441 26.2635 97.4559 26.2708 97.4668 26.2837C97.4778 26.2967 97.484 26.3143 97.484 26.3326V27.8538C97.4843 28.1287 97.5768 28.3924 97.7414 28.5868C97.9059 28.7813 98.129 28.8906 98.3617 28.8909H99.9417C99.9493 28.8909 99.9569 28.8927 99.964 28.8962C99.9711 28.8997 99.9776 28.9048 99.983 28.9112C99.9885 28.9176 99.9928 28.9252 99.9957 28.9336C99.9987 28.942 100 28.951 100 28.9601C100 28.9692 99.9987 28.9782 99.9957 28.9866C99.9928 28.9949 99.9885 29.0026 99.983 29.009C99.9776 29.0154 99.9711 29.0205 99.964 29.024C99.9569 29.0275 99.9493 29.0292 99.9417 29.0292Z" fill="#3F3D56"/>
<path d="M65.6541 9.11896H55.6383C55.3677 9.11896 55.1483 9.37813 55.1483 9.69784C55.1483 10.0175 55.3677 10.2767 55.6383 10.2767H65.6541C65.9247 10.2767 66.1441 10.0175 66.1441 9.69784C66.1441 9.37813 65.9247 9.11896 65.6541 9.11896Z" fill="#3F3D56"/>
<path d="M65.6541 13.3839H55.6383C55.3677 13.3839 55.1483 13.643 55.1483 13.9627C55.1483 14.2824 55.3677 14.5416 55.6383 14.5416H65.6541C65.9247 14.5416 66.1441 14.2824 66.1441 13.9627C66.1441 13.643 65.9247 13.3839 65.6541 13.3839Z" fill="#3F3D56"/>
<path d="M65.6541 17.2048H55.6383C55.3677 17.2048 55.1483 17.4639 55.1483 17.7837C55.1483 18.1034 55.3677 18.3625 55.6383 18.3625H65.6541C65.9247 18.3625 66.1441 18.1034 66.1441 17.7837C66.1441 17.4639 65.9247 17.2048 65.6541 17.2048Z" fill="#3F3D56"/>
<path d="M51.0125 9.69792C51.0124 9.39912 51.0872 9.107 51.2277 8.8585C51.3681 8.61001 51.5677 8.41629 51.8013 8.30187C52.0349 8.18744 52.2919 8.15744 52.54 8.21566C52.788 8.27388 53.0158 8.41771 53.1947 8.62895C53.3735 8.84019 53.4953 9.10936 53.5447 9.4024C53.5941 9.69545 53.5688 9.99922 53.472 10.2753C53.3753 10.5513 53.2114 10.7873 53.0012 10.9533C52.7909 11.1193 52.5437 11.208 52.2909 11.208C51.952 11.2075 51.6271 11.0483 51.3875 10.7652C51.1478 10.4822 51.0129 10.0983 51.0125 9.69792Z" fill="#2218DE"/>
<path d="M51.0125 13.9629C51.0125 13.6641 51.0874 13.3721 51.2279 13.1236C51.3684 12.8752 51.568 12.6816 51.8016 12.5673C52.0352 12.4529 52.2923 12.423 52.5403 12.4813C52.7883 12.5396 53.0161 12.6835 53.1948 12.8947C53.3736 13.106 53.4954 13.3752 53.5447 13.6682C53.594 13.9612 53.5687 14.265 53.472 14.541C53.3752 14.817 53.2114 15.0529 53.0011 15.2189C52.7909 15.3849 52.5437 15.4735 52.2909 15.4735C51.9519 15.4731 51.627 15.3138 51.3873 15.0306C51.1476 14.7474 51.0128 14.3634 51.0125 13.9629Z" fill="#2218DE"/>
<path d="M51.0125 17.7839C51.0125 17.4851 51.0874 17.193 51.2279 16.9446C51.3684 16.6962 51.568 16.5026 51.8016 16.3882C52.0352 16.2739 52.2923 16.244 52.5403 16.3023C52.7883 16.3606 53.0161 16.5044 53.1948 16.7157C53.3736 16.927 53.4954 17.1961 53.5447 17.4892C53.594 17.7822 53.5687 18.0859 53.472 18.362C53.3752 18.638 53.2114 18.8739 53.0011 19.0399C52.7909 19.2059 52.5437 19.2945 52.2909 19.2945C51.9519 19.2941 51.627 19.1348 51.3873 18.8516C51.1476 18.5684 51.0128 18.1844 51.0125 17.7839Z" fill="#2218DE"/>
<path d="M50.365 0.67289C50.2196 0.777786 50.0994 0.925083 50.016 1.10065C49.9326 1.27621 49.8887 1.47415 49.8887 1.67549V1.84838H50.0057V1.67549C50.0059 1.44683 50.07 1.22465 50.1879 1.04338C50.3059 0.862108 50.4712 0.731883 50.6581 0.67289H50.365ZM64.7327 0.5H50.8835C50.6197 0.500352 50.3669 0.624313 50.1804 0.844683C49.9939 1.06505 49.889 1.36384 49.8887 1.67549V25.8059C49.889 26.1175 49.994 26.4163 50.1804 26.6366C50.3669 26.857 50.6197 26.9809 50.8835 26.9814H66.2729C66.5366 26.9809 66.7894 26.857 66.9759 26.6366C67.1623 26.4163 67.2673 26.1175 67.2676 25.8059V3.17444L64.7327 0.5ZM67.1505 25.8062C67.1502 26.0812 67.0576 26.3448 66.8931 26.5392C66.7285 26.7337 66.5054 26.843 66.2727 26.8434H50.8835C50.6508 26.843 50.4277 26.7337 50.2631 26.5392C50.0985 26.3448 50.006 26.0812 50.0057 25.8062V1.67578C50.0059 1.44713 50.07 1.22494 50.1879 1.04367C50.3059 0.862405 50.4712 0.732181 50.6581 0.673187C50.7316 0.650065 50.8072 0.638438 50.8832 0.638608H64.6882L67.1505 3.23635V25.8062ZM50.365 0.67289C50.2196 0.777786 50.0994 0.925083 50.016 1.10065C49.9326 1.27621 49.8887 1.47415 49.8887 1.67549V1.84838H50.0057V1.67549C50.0059 1.44683 50.07 1.22465 50.1879 1.04338C50.3059 0.862108 50.4712 0.731883 50.6581 0.67289H50.365Z" fill="#3F3D56"/>
<path d="M67.209 3.26576H65.6291C65.3653 3.26541 65.1125 3.14147 64.926 2.92113C64.7395 2.70079 64.6346 2.40204 64.6343 2.09042V0.569158C64.6343 0.550817 64.6404 0.533226 64.6514 0.520257C64.6624 0.507288 64.6773 0.5 64.6928 0.5C64.7083 0.5 64.7232 0.507288 64.7342 0.520257C64.7452 0.533226 64.7513 0.550817 64.7513 0.569158V2.09027C64.7516 2.36526 64.8442 2.62888 65.0087 2.82332C65.1733 3.01777 65.3964 3.12714 65.6291 3.12745H67.209C67.2167 3.12745 67.2243 3.12924 67.2314 3.13272C67.2385 3.13619 67.2449 3.14128 67.2504 3.14771C67.2558 3.15413 67.2601 3.16175 67.2631 3.17014C67.266 3.17853 67.2675 3.18753 67.2675 3.19661C67.2675 3.20569 67.266 3.21468 67.2631 3.22307C67.2601 3.23146 67.2558 3.23908 67.2504 3.2455C67.2449 3.25193 67.2385 3.25702 67.2314 3.2605C67.2243 3.26397 67.2167 3.26576 67.209 3.26576Z" fill="#3F3D56"/>
<path d="M21.4289 40.0836H11.4131C11.1425 40.0836 10.9231 40.3427 10.9231 40.6624C10.9231 40.9821 11.1425 41.2413 11.4131 41.2413H21.4289C21.6995 41.2413 21.9189 40.9821 21.9189 40.6624C21.9189 40.3427 21.6995 40.0836 21.4289 40.0836Z" fill="#3F3D56"/>
<path d="M21.4289 44.3484H11.4131C11.1425 44.3484 10.9231 44.6076 10.9231 44.9273C10.9231 45.247 11.1425 45.5062 11.4131 45.5062H21.4289C21.6995 45.5062 21.9189 45.247 21.9189 44.9273C21.9189 44.6076 21.6995 44.3484 21.4289 44.3484Z" fill="#3F3D56"/>
<path d="M21.4289 48.1694H11.4131C11.1425 48.1694 10.9231 48.4285 10.9231 48.7483C10.9231 49.068 11.1425 49.3271 11.4131 49.3271H21.4289C21.6995 49.3271 21.9189 49.068 21.9189 48.7483C21.9189 48.4285 21.6995 48.1694 21.4289 48.1694Z" fill="#3F3D56"/>
<path d="M6.78723 40.6625C6.78713 40.3637 6.86203 40.0716 7.00244 39.8231C7.14285 39.5746 7.34249 39.3809 7.57608 39.2665C7.80967 39.152 8.06673 39.122 8.31475 39.1803C8.56277 39.2385 8.79061 39.3823 8.96945 39.5935C9.14829 39.8048 9.2701 40.074 9.31947 40.367C9.36884 40.6601 9.34354 40.9638 9.2468 41.2399C9.15005 41.5159 8.98619 41.7519 8.77595 41.9179C8.5657 42.0839 8.31852 42.1726 8.06565 42.1726C7.72679 42.1721 7.40191 42.0129 7.16225 41.7298C6.9226 41.4468 6.78773 41.0629 6.78723 40.6625Z" fill="#2218DE"/>
<path d="M6.78723 44.9275C6.78723 44.6287 6.86221 44.3367 7.00269 44.0882C7.14316 43.8398 7.34282 43.6462 7.57642 43.5319C7.81002 43.4175 8.06706 43.3876 8.31505 43.4459C8.56304 43.5042 8.79084 43.6481 8.96963 43.8593C9.14842 44.0706 9.27017 44.3398 9.3195 44.6328C9.36883 44.9258 9.34351 45.2296 9.24675 45.5056C9.14999 45.7816 8.98614 46.0175 8.7759 46.1835C8.56567 46.3495 8.3185 46.4381 8.06565 46.4381C7.7267 46.4377 7.40175 46.2784 7.16208 45.9952C6.92241 45.712 6.7876 45.328 6.78723 44.9275Z" fill="#2218DE"/>
<path d="M6.78723 48.7485C6.78723 48.4497 6.86221 48.1576 7.00269 47.9092C7.14316 47.6608 7.34282 47.4672 7.57642 47.3528C7.81002 47.2385 8.06706 47.2086 8.31505 47.2669C8.56304 47.3252 8.79084 47.469 8.96963 47.6803C9.14842 47.8916 9.27017 48.1607 9.3195 48.4538C9.36883 48.7468 9.34351 49.0505 9.24675 49.3266C9.14999 49.6026 8.98614 49.8385 8.7759 50.0045C8.56567 50.1705 8.3185 50.2591 8.06565 50.2591C7.7267 50.2587 7.40175 50.0994 7.16208 49.8162C6.92241 49.533 6.7876 49.149 6.78723 48.7485Z" fill="#2218DE"/>
<path d="M6.13978 31.6375C5.99435 31.7424 5.87416 31.8897 5.79075 32.0652C5.70734 32.2408 5.66351 32.4388 5.66345 32.6401V32.813H5.7805V32.6401C5.78072 32.4114 5.84477 32.1892 5.96273 32.008C6.08068 31.8267 6.24595 31.6965 6.4329 31.6375H6.13978ZM20.5075 31.4646H6.65825C6.3945 31.465 6.14165 31.5889 5.95515 31.8093C5.76866 32.0297 5.66375 32.3284 5.66345 32.6401V56.7705C5.66382 57.0821 5.76874 57.3808 5.95522 57.6012C6.14171 57.8216 6.39453 57.9455 6.65825 57.946H22.0476C22.3114 57.9455 22.5642 57.8216 22.7506 57.6012C22.9371 57.3808 23.0421 57.0821 23.0424 56.7705V34.139L20.5075 31.4646ZM22.9253 56.7708C22.925 57.0458 22.8324 57.3094 22.6679 57.5038C22.5033 57.6983 22.2802 57.8076 22.0475 57.808H6.65825C6.42554 57.8076 6.20243 57.6983 6.03788 57.5038C5.87333 57.3094 5.78077 57.0458 5.7805 56.7708V32.6404C5.78072 32.4117 5.84477 32.1895 5.96273 32.0083C6.08068 31.827 6.24595 31.6968 6.4329 31.6378C6.50633 31.6147 6.58201 31.603 6.658 31.6032H20.463L22.9253 34.201V56.7708ZM6.13978 31.6375C5.99435 31.7424 5.87416 31.8897 5.79075 32.0652C5.70734 32.2408 5.66351 32.4388 5.66345 32.6401V32.813H5.7805V32.6401C5.78072 32.4114 5.84477 32.1892 5.96273 32.008C6.08068 31.8267 6.24595 31.6965 6.4329 31.6375H6.13978Z" fill="#3F3D56"/>
<path d="M22.9838 34.2304H21.4038C21.1401 34.23 20.8873 34.1061 20.7008 33.8857C20.5143 33.6654 20.4094 33.3666 20.4091 33.055V31.5338C20.4091 31.5154 20.4152 31.4978 20.4262 31.4849C20.4372 31.4719 20.4521 31.4646 20.4676 31.4646C20.4831 31.4646 20.498 31.4719 20.509 31.4849C20.5199 31.4978 20.5261 31.5154 20.5261 31.5338V33.0549C20.5264 33.3299 20.6189 33.5935 20.7835 33.7879C20.948 33.9824 21.1711 34.0917 21.4038 34.092H22.9838C22.9915 34.092 22.9991 34.0938 23.0062 34.0973C23.0133 34.1008 23.0197 34.1059 23.0252 34.1123C23.0306 34.1187 23.0349 34.1264 23.0378 34.1347C23.0408 34.1431 23.0423 34.1521 23.0423 34.1612C23.0423 34.1703 23.0408 34.1793 23.0378 34.1877C23.0349 34.1961 23.0306 34.2037 23.0252 34.2101C23.0197 34.2165 23.0133 34.2216 23.0062 34.2251C22.9991 34.2286 22.9915 34.2304 22.9838 34.2304Z" fill="#3F3D56"/>
</svg>
