<svg width="100" height="101" viewBox="0 0 100 101" fill="none" xmlns="http://www.w3.org/2000/svg">
<g clip-path="url(#clip0_82_58)">
<path d="M32.932 100.5C29.9146 100.5 26.9017 100.392 23.8933 100.177C19.5947 99.8687 15.1496 99.5504 11.0182 94.9794C8.12803 91.7821 5.56836 86.6522 3.61597 80.1441C2.31101 75.733 1.35416 70.9474 0.779028 65.9556C-0.293819 56.8673 -0.257276 47.398 0.885583 38.3437C1.28609 35.2393 1.8382 32.2208 2.53402 29.3314C5.54693 16.8854 11.0423 8.53066 17.611 6.40972C17.6653 6.39567 17.7201 6.39333 17.7746 6.40275C17.8042 6.4059 17.8336 6.40928 17.8636 6.40678L17.9023 6.38227C18.0013 6.31358 18.1031 6.26148 18.2065 6.22651C28.3373 3.21795 39.0469 9.30532 49.1769 23.8301C57.0094 35.0621 67.3897 41.1103 80.9109 42.3204L81.1029 42.3405C84.8669 42.7718 88.5078 45.8674 91.6324 51.2931C94.7165 56.6481 97.0322 63.7928 98.329 71.9551C98.4884 72.9502 98.6346 73.986 98.7634 75.0337C98.8833 76.0073 98.8748 77.0262 98.7388 77.9914C98.6028 78.9566 98.3438 79.8351 97.9872 80.5414V80.5434L97.9535 80.6124C97.8725 80.7732 97.7871 80.9275 97.6999 81.071L97.5974 81.2396C96.7333 82.6595 96.0508 83.7812 95.234 84.6524C94.6892 85.2295 94.1098 85.6658 93.5098 85.951C90.2148 87.5534 86.8688 89.0391 83.5645 90.3671C77.1474 92.9482 70.5612 95.0774 63.9889 96.6953C53.6854 99.2297 43.3136 100.5 32.932 100.5ZM17.6978 6.84356C17.6776 6.84318 17.6574 6.84591 17.6375 6.85172C11.1301 8.95285 5.68682 17.2255 2.70379 29.5484C2.01484 32.4091 1.46818 35.3977 1.07166 38.4713C-0.060781 47.4454 -0.0968689 56.8306 0.966436 65.8382C1.53594 70.7822 2.48351 75.522 3.77587 79.891C5.70916 86.3353 8.24265 91.4137 11.1025 94.5772C15.1969 99.1073 19.6209 99.4243 23.8994 99.7306C37.2807 100.684 50.679 99.5211 63.9682 96.2518C70.5362 94.6348 77.1181 92.507 83.531 89.9275C86.833 88.6006 90.1768 87.116 93.4695 85.5144C94.0551 85.2365 94.6206 84.8108 95.1522 84.2477C95.9526 83.3941 96.6286 82.2831 97.4844 80.8767L97.5869 80.7083C97.6619 80.5848 97.7355 80.4528 97.8059 80.3155L97.8261 80.2733C98.5294 78.8592 98.8028 76.9936 98.5764 75.155V75.1548C98.449 74.1183 98.3044 73.0935 98.1466 72.1086C95.4974 55.4347 88.6444 43.6513 81.0936 42.7862L80.9027 42.7662C74.7263 42.2133 69.3216 40.6818 64.3802 38.0838C58.4815 34.9825 53.3317 30.3141 49.074 24.2085C38.9827 9.73937 28.3178 3.67466 18.2313 6.66895C18.137 6.70137 18.0443 6.74932 17.9541 6.81229L17.8844 6.85118C17.8449 6.85471 17.8052 6.85376 17.7657 6.84834C17.7424 6.84595 17.7198 6.84356 17.6978 6.84356Z" fill="#F0F0F0"/>
<path d="M31.2359 33.0812C30.9566 32.5466 30.6708 29.5652 30.3142 29.2625C30.5808 30.4378 30.3872 30.749 30.3858 32.0389C30.3892 32.7713 30.3463 33.5016 30.2582 34.2126H24.2169V24.8074C24.2169 23.9624 24.3003 23.1256 24.4624 22.3448C24.6246 21.564 24.8622 20.8546 25.1617 20.2571C25.4613 19.6595 25.8169 19.1855 26.2083 18.8621C26.5997 18.5387 27.0192 18.3723 27.4428 18.3723C27.6045 18.3786 27.7652 18.4255 27.921 18.512C28.4402 18.7916 28.9135 19.3388 29.2933 20.0985C29.6731 20.8582 29.9461 21.8038 30.0849 22.8404C30.5454 26.1985 31.2779 31.7883 31.2359 33.0812Z" fill="#2F2E41"/>
<path d="M24.5714 44.6514L24.5744 37.3206L22.4142 37.7056L23.1766 42.3292L22.8198 53.9505C22.6467 54.028 22.4887 54.2042 22.365 54.4577C22.2413 54.7112 22.1572 55.0311 22.1231 55.3783C22.0889 55.7254 22.1061 56.0849 22.1726 56.4129C22.2391 56.7409 22.352 57.0232 22.4975 57.2254C22.6431 57.4276 22.8149 57.541 22.9922 57.5517C23.1695 57.5624 23.3445 57.47 23.4959 57.2857C23.6473 57.1015 23.7685 56.8333 23.8449 56.5139C23.9212 56.1946 23.9493 55.8378 23.9257 55.4872L24.5714 44.6514Z" fill="#FFB6B6"/>
<path d="M28.8226 97.0374L29.6953 97.0372L30.1105 90.3222H28.8224L28.8226 97.0374Z" fill="#FFB6B6"/>
<path d="M28.527 96.1785L29.9066 96.0143V97.1934L31.2183 99.0004C31.2831 99.0896 31.3318 99.2179 31.3575 99.3663C31.3832 99.5148 31.3844 99.6758 31.361 99.8257C31.3375 99.9756 31.2907 100.107 31.2273 100.2C31.1639 100.293 31.0872 100.343 31.0085 100.343H29.366L29.0829 99.1767L28.9724 100.343H28.3531L28.527 96.1785Z" fill="#2F2E41"/>
<path d="M23.7764 97.0374L24.6492 97.0372L25.0643 90.3222H23.7762L23.7764 97.0374Z" fill="#FFB6B6"/>
<path d="M23.4808 96.1785L24.8604 96.0143V97.1934L26.1721 99.0004C26.2369 99.0896 26.2856 99.2179 26.3113 99.3663C26.337 99.5148 26.3382 99.6758 26.3148 99.8257C26.2913 99.9756 26.2445 100.107 26.1811 100.2C26.1177 100.293 26.041 100.343 25.9623 100.343H24.3198L24.0367 99.1767L23.9262 100.343H23.3069L23.4808 96.1785Z" fill="#2F2E41"/>
<path d="M28.0454 29.404L26.2375 29.4747L24.9613 32.1619L23.9382 32.4612C23.4754 32.5967 23.0499 33.0449 22.7328 33.7309C22.4158 34.417 22.2264 35.2994 22.1963 36.2306L22.3735 38.1727H23.437L24.0522 45.3787C23.813 46.5947 23.7968 47.5545 24.2878 47.9315L25.8121 53.6595L30.3142 49.6287C30.5425 48.8457 30.6157 48.0592 30.3823 47.2944L30.7041 36.2634H31.7863C31.7863 34.2003 31.4365 32.461 30.4087 32.2314C30.0005 32.1433 29.5904 32.0965 29.1798 32.0912L28.0454 29.404Z" fill="#E6E6E6"/>
<path d="M30.3142 49.6287C30.3142 49.6287 25.9185 51.1844 24.2878 47.9315C24.2878 47.9315 24.1222 48.4922 23.8728 49.422C23.801 49.6894 23.6625 49.8705 23.5788 50.1944C23.5027 50.4888 23.3071 50.8507 23.2243 51.1846C23.1576 51.4531 23.2646 51.8041 23.1952 52.0943C22.3601 55.5884 21.3845 60.5172 21.5936 63.7719C21.7285 65.8707 22.0071 70.7545 22.3005 75.9999C22.3235 76.4097 22.1378 76.9362 22.1608 77.3493C22.1825 77.7388 22.413 78.0149 22.4347 78.4053C22.4492 78.6645 22.2882 78.929 22.3026 79.1879C22.3184 79.472 22.5095 79.7505 22.5252 80.0334C22.9272 87.2762 23.2952 94.0382 23.2952 94.0382H25.3513L25.7392 78.5944L25.4222 72.9649L26.1666 61.5797L27.1946 72.3992L27.3269 78.4885L28.4133 94.3211H30.3142V78.9941L30.456 78.1979L30.3142 77.1767L30.456 76.0764L30.3142 74.8781V49.6287Z" fill="#2F2E41"/>
<path d="M28.6004 27.3125C28.3203 28.0547 27.9219 28.5844 27.4708 28.8145C27.0196 29.0446 26.5427 28.9613 26.1184 28.5785C25.6942 28.1956 25.3479 27.5359 25.1367 26.708C24.9255 25.8802 24.862 24.9335 24.9565 24.0239C25.051 23.1144 25.298 22.2962 25.6568 21.704C26.0156 21.1119 26.4648 20.7812 26.9303 20.7663C27.3959 20.7515 27.8502 21.0534 28.2183 21.6223C28.5864 22.1912 28.8464 22.9932 28.9554 23.8963C28.9613 23.9453 28.9663 23.994 28.9711 24.0446C29.0287 24.6106 29.0255 25.1946 28.9616 25.7579C28.8977 26.3213 28.7746 26.8511 28.6004 27.3125Z" fill="#FFB6B6"/>
<path d="M28.173 24.98C28.1296 24.5447 28.0196 24.147 27.8583 23.8415C27.8742 24.2586 27.8452 24.6776 27.7732 25.0705C27.2342 25.1657 26.6928 24.9518 26.2127 24.4539C25.8511 23.9645 25.391 24.0069 24.855 24.4539C24.8549 23.9338 24.9063 23.4188 25.006 22.9383C25.1058 22.4578 25.252 22.0213 25.4363 21.6535C25.6207 21.2858 25.8396 20.9941 26.0804 20.7951C26.3213 20.5961 26.5794 20.4937 26.8401 20.4938H27.1946C27.7211 20.494 28.226 20.9113 28.5983 21.6539C28.9705 22.3965 29.1797 23.4036 29.1798 24.4539C28.8526 24.688 28.5157 24.864 28.173 24.98Z" fill="#2F2E41"/>
<path d="M12.6642 75.4528C15.8139 75.4528 18.3673 70.3593 18.3673 64.076C18.3673 57.7928 15.8139 52.6993 12.6642 52.6993C9.51443 52.6993 6.96106 57.7928 6.96106 64.076C6.96106 70.3593 9.51443 75.4528 12.6642 75.4528Z" fill="#F0F0F0"/>
<path d="M49.0075 23.2535C52.1572 23.2535 54.7106 18.16 54.7106 11.8768C54.7106 5.59355 52.1572 0.5 49.0075 0.5C45.8578 0.5 43.3044 5.59355 43.3044 11.8768C43.3044 18.16 45.8578 23.2535 49.0075 23.2535Z" fill="#F0F0F0"/>
<path d="M94.2969 77.2374C97.4466 77.2374 100 72.1438 100 65.8606C100 59.5774 97.4466 54.4838 94.2969 54.4838C91.1471 54.4838 88.5938 59.5774 88.5938 65.8606C88.5938 72.1438 91.1471 77.2374 94.2969 77.2374Z" fill="#F0F0F0"/>
<path d="M59.2955 13.1175V38.9151C59.2955 39.4509 59.1895 39.9652 59.0006 40.3461C58.8117 40.727 58.555 40.9438 58.2864 40.9493C58.2827 40.9501 58.279 40.9504 58.2753 40.9503H56.7701C55.5658 40.9503 54.4108 39.9959 53.5592 38.2972C52.7077 36.5984 52.2292 34.2944 52.2292 31.892V13.1175C52.2292 12.5777 52.3367 12.06 52.5281 11.6784C52.7194 11.2967 52.9789 11.0823 53.2495 11.0823H53.8594C53.5768 12.7265 57.4116 13.4187 57.6221 11.0823H58.2753C58.5458 11.0823 58.8053 11.2967 58.9967 11.6784C59.188 12.06 59.2955 12.5777 59.2955 13.1175Z" fill="#2218DE"/>
<path d="M54.8288 9.15319C54.8288 9.08248 54.8429 9.01469 54.868 8.96469C54.8931 8.91469 54.927 8.88656 54.9625 8.88647H55.8717C55.9071 8.88668 55.941 8.91487 55.966 8.96486C55.991 9.01486 56.005 9.08259 56.005 9.15319C56.005 9.2238 55.991 9.29152 55.966 9.34152C55.941 9.39152 55.9071 9.41971 55.8717 9.41991H54.9625C54.927 9.41983 54.8931 9.3917 54.868 9.3417C54.8429 9.2917 54.8288 9.2239 54.8288 9.15319Z" fill="#3F3D56"/>
<path d="M58.5876 44.2225H52.8379C52.3919 44.2215 51.9642 43.8675 51.6488 43.2383C51.3333 42.6091 51.1559 41.756 51.1554 40.8661V22.8326C51.1238 22.7873 51.0981 22.7277 51.0804 22.6587C51.0627 22.5897 51.0534 22.5133 51.0535 22.4357V20.6221C51.0534 20.5446 51.0627 20.4681 51.0804 20.3991C51.0981 20.3301 51.1238 20.2706 51.1554 20.2254V19.7386C51.1238 19.6934 51.0981 19.6338 51.0804 19.5648C51.0627 19.4958 51.0534 19.4194 51.0535 19.3419V17.5281C51.0534 17.4506 51.0627 17.3742 51.0804 17.3052C51.0981 17.2362 51.1238 17.1766 51.1554 17.1314V16.2517C51.1164 16.2099 51.0838 16.1478 51.0612 16.072C51.0385 15.9961 51.0266 15.9095 51.0267 15.8212V14.0075C51.0266 13.9192 51.0385 13.8325 51.0612 13.7567C51.0838 13.6809 51.1164 13.6187 51.1554 13.5769V11.1663C51.1559 10.2764 51.3333 9.4233 51.6488 8.79408C51.9642 8.16487 52.3919 7.81094 52.8379 7.80994H58.5876C59.0337 7.81094 59.4613 8.16488 59.7767 8.79409C60.0922 9.42331 60.2696 10.2764 60.2701 11.1663V16.421C60.3004 16.4588 60.3254 16.5114 60.3427 16.5738C60.36 16.6361 60.3691 16.7062 60.3691 16.7775V20.2358C60.3691 20.3071 60.36 20.3773 60.3427 20.4397C60.3254 20.502 60.3004 20.5546 60.2701 20.5924V40.8661C60.2696 41.756 60.0922 42.6091 59.7767 43.2383C59.4613 43.8675 59.0337 44.2215 58.5876 44.2225ZM52.8379 8.25608C52.4512 8.25695 52.0803 8.56383 51.8068 9.10941C51.5333 9.65499 51.3795 10.3947 51.379 11.1663V13.9564L51.2715 13.9647C51.2659 13.9651 51.2606 13.9698 51.2566 13.9777C51.2527 13.9857 51.2505 13.9964 51.2504 14.0075V15.8212C51.2505 15.8323 51.2527 15.843 51.2567 15.8509C51.2606 15.8589 51.2659 15.8636 51.2715 15.864L51.379 15.8722V17.4447L51.294 17.4865C51.2892 17.4888 51.285 17.4941 51.282 17.5016C51.279 17.5091 51.2772 17.5185 51.2771 17.5281V19.3419C51.2772 19.3516 51.279 19.3609 51.282 19.3684C51.285 19.3759 51.2892 19.3812 51.294 19.3835L51.379 19.4253V20.5386L51.294 20.5805C51.2892 20.5827 51.285 20.588 51.282 20.5956C51.279 20.6031 51.2772 20.6124 51.2771 20.6221V22.4357C51.2772 22.4454 51.2789 22.4548 51.282 22.4623C51.285 22.4699 51.2892 22.4752 51.294 22.4775L51.379 22.5193V40.8661C51.3795 41.6377 51.5333 42.3774 51.8068 42.923C52.0803 43.4686 52.4512 43.7755 52.8379 43.7763H58.5876C58.9744 43.7754 59.3452 43.4685 59.6187 42.923C59.8922 42.3774 60.046 41.6377 60.0464 40.8661V20.2105H60.1455V16.803H60.0464V11.1663C60.046 10.3947 59.8922 9.655 59.6187 9.10943C59.3452 8.56385 58.9744 8.25696 58.5876 8.25608L52.8379 8.25608Z" fill="#3F3D56"/>
<path d="M56.3798 9.41991C56.4536 9.41991 56.5135 9.3005 56.5135 9.15319C56.5135 9.00589 56.4536 8.88647 56.3798 8.88647C56.306 8.88647 56.2461 9.00589 56.2461 9.15319C56.2461 9.3005 56.306 9.41991 56.3798 9.41991Z" fill="#3F3D56"/>
<path d="M27.2944 60.8198H12.3336C12.1211 60.8187 11.9175 60.6499 11.7673 60.3502C11.617 60.0506 11.5324 59.6444 11.5318 59.2206V44.6786C11.5323 44.2548 11.617 43.8487 11.7672 43.549C11.9174 43.2493 12.121 43.0804 12.3335 43.0792H27.2943C27.5068 43.0803 27.7104 43.2491 27.8606 43.5488C28.0108 43.8485 28.0955 44.2546 28.0961 44.6784V59.2204C28.0955 59.6442 28.0109 60.0504 27.8607 60.3501C27.7105 60.6498 27.5069 60.8187 27.2944 60.8198Z" fill="white"/>
<path d="M27.2944 60.8198H12.3336C12.1211 60.8187 11.9175 60.6499 11.7673 60.3502C11.617 60.0506 11.5324 59.6444 11.5318 59.2206V44.6786C11.5323 44.2548 11.617 43.8487 11.7672 43.549C11.9174 43.2493 12.121 43.0804 12.3335 43.0792H27.2943C27.5068 43.0803 27.7104 43.2491 27.8606 43.5488C28.0108 43.8485 28.0955 44.2546 28.0961 44.6784V59.2204C28.0955 59.6442 28.0109 60.0504 27.8607 60.3501C27.7105 60.6498 27.5069 60.8187 27.2944 60.8198ZM12.3336 43.5254C12.1804 43.5263 12.0336 43.6481 11.9252 43.8642C11.8169 44.0804 11.7559 44.3732 11.7555 44.6789V59.2204C11.7559 59.526 11.817 59.8189 11.9253 60.035C12.0337 60.2511 12.1805 60.3728 12.3337 60.3737H27.2942C27.4474 60.3728 27.5943 60.251 27.7026 60.0349C27.811 59.8187 27.872 59.5258 27.8724 59.2202V44.6787C27.872 44.373 27.8109 44.0802 27.7026 43.8641C27.5942 43.648 27.4474 43.5262 27.2942 43.5254L12.3336 43.5254Z" fill="#3F3D56"/>
<path d="M20.6158 58.6707C17.6652 58.6707 14.5886 58.6145 13.4406 58.578C13.2896 58.5718 13.1458 58.448 13.0398 58.2332C12.9339 58.0183 12.8743 57.7294 12.8737 57.428V45.3906C12.8738 45.2827 12.8953 45.1792 12.9335 45.1028C12.9717 45.0264 13.0235 44.9833 13.0776 44.9829H26.5499C26.6039 44.983 26.6558 45.0259 26.6941 45.1021C26.7324 45.1783 26.754 45.2816 26.7542 45.3895V53.5567C26.7517 54.8899 26.4873 56.168 26.0178 57.1168C25.5484 58.0657 24.9112 58.6097 24.2429 58.6321C23.1731 58.6599 21.9062 58.6707 20.6158 58.6707Z" fill="#2218DE"/>
<path d="M25.7501 52.8063H13.5769C13.4749 52.8058 13.3756 52.7426 13.2923 52.6255C13.2089 52.5083 13.1457 52.3428 13.1112 52.1515L11.7334 44.4407C11.7068 44.2919 11.6986 44.1327 11.7093 43.9763C11.7199 43.8198 11.7493 43.6708 11.7949 43.5417C11.8404 43.4126 11.9008 43.3072 11.971 43.2344C12.0412 43.1615 12.1192 43.1233 12.1983 43.123L27.4147 43.0808C27.487 43.0806 27.5585 43.1121 27.6241 43.173C27.6896 43.2339 27.7477 43.3228 27.7942 43.4334C27.8407 43.5439 27.8744 43.6735 27.8931 43.8129C27.9117 43.9523 27.9149 44.0982 27.9022 44.2402L27.9139 44.2501L27.8702 44.4535L27.8698 44.4556L26.2042 52.2086C26.1662 52.3861 26.1029 52.5374 26.0222 52.6437C25.9415 52.7499 25.8469 52.8065 25.7501 52.8063ZM27.4154 43.5269L12.1988 43.5692C12.1554 43.5693 12.1127 43.5902 12.0742 43.6301C12.0358 43.67 12.0027 43.7278 11.9777 43.7985C11.9528 43.8692 11.9367 43.9508 11.9308 44.0365C11.925 44.1222 11.9295 44.2094 11.944 44.2909L13.3218 52.0014C13.3408 52.1062 13.3754 52.1969 13.4211 52.2611C13.4667 52.3253 13.5212 52.3599 13.577 52.3602H25.7501C25.8031 52.3603 25.8548 52.3293 25.899 52.2711C25.9432 52.2129 25.9778 52.1301 25.9986 52.033L27.6643 44.2798C27.6819 44.1976 27.6891 44.108 27.6851 44.019C27.6811 43.9299 27.6661 43.8443 27.6415 43.7697C27.6168 43.695 27.5832 43.6338 27.5438 43.5914C27.5043 43.5491 27.4602 43.5269 27.4154 43.5269Z" fill="#3F3D56"/>
<path d="M19.7913 54.4848C20.3177 54.4848 20.7445 53.6335 20.7445 52.5833C20.7445 51.5331 20.3177 50.6818 19.7913 50.6818C19.2648 50.6818 18.8381 51.5331 18.8381 52.5833C18.8381 53.6335 19.2648 54.4848 19.7913 54.4848Z" fill="white"/>
<path d="M55.7991 37.9773C56.3255 37.9773 56.7523 37.126 56.7523 36.0759C56.7523 35.0257 56.3255 34.1744 55.7991 34.1744C55.2726 34.1744 54.8459 35.0257 54.8459 36.0759C54.8459 37.126 55.2726 37.9773 55.7991 37.9773Z" fill="white"/>
<path d="M91.8512 63.6567L89.305 58.642C89.181 58.3959 89.0339 58.2011 88.8722 58.0687C88.7104 57.9362 88.5371 57.8687 88.3623 57.8701H88.3533C88.1771 57.8712 88.0028 57.9419 87.8404 58.0782C87.678 58.2145 87.5308 58.4137 87.4073 58.6643C86.8379 59.8137 86.5141 61.3586 86.5039 62.9743C86.4937 64.5901 86.7979 66.1508 87.3525 67.3285C87.3793 67.3865 87.4073 67.4422 87.4352 67.498C87.5901 67.8051 87.7611 68.078 87.9452 68.3122C88.4485 68.961 89.0355 69.3043 89.6349 69.3004H89.6539C90.0652 69.2976 90.4722 69.1322 90.8513 68.8136C91.2304 68.495 91.5741 68.0297 91.8624 67.4445C92.1123 66.9388 92.2514 66.256 92.2493 65.546C92.2472 64.8359 92.1041 64.1565 91.8512 63.6567ZM91.7036 67.1299C91.2309 68.08 90.6084 68.6759 89.9411 68.8173C89.2738 68.9587 88.6025 68.6369 88.0402 67.9062C87.8794 67.6939 87.7292 67.4511 87.5918 67.1812C87.0431 66.1003 86.7322 64.6289 86.7274 63.0906C86.7226 61.5524 87.0242 60.0734 87.5661 58.9788C87.6691 58.7694 87.7919 58.603 87.9275 58.4893C88.063 58.3756 88.2085 58.3167 88.3556 58.3163H88.3623C88.5079 58.3153 88.6521 58.3715 88.7868 58.4817C88.9215 58.5919 89.044 58.754 89.1473 58.9587L91.6936 63.9757C91.9043 64.3915 92.0238 64.9573 92.0257 65.5486C92.0276 66.14 91.9117 66.7087 91.7036 67.1299Z" fill="#3F3D56"/>
<path d="M83.4968 47.1983L80.9505 42.1813C80.6999 41.6853 80.3609 41.4077 80.0078 41.4095H80C79.8236 41.4109 79.649 41.482 79.4865 41.6187C79.3239 41.7554 79.1765 41.9549 79.0528 42.2059C78.5821 43.1594 78.2769 44.3887 78.182 45.7134C78.087 47.0381 78.2072 48.3888 78.525 49.5673L78.5261 49.5695C78.6572 50.0516 78.8201 50.4965 79.0103 50.8923C79.0316 50.9414 79.0562 50.9905 79.0808 51.0396C79.6655 52.1974 80.4565 52.8456 81.2804 52.842H81.3005C81.7119 52.8386 82.1189 52.6726 82.498 52.3537C82.8771 52.0347 83.2207 51.5692 83.5091 50.9838C83.6329 50.7336 83.7308 50.4373 83.7972 50.1116C83.8635 49.786 83.8971 49.4375 83.896 49.0859C83.8948 48.7344 83.859 48.3868 83.7905 48.0629C83.722 47.739 83.6222 47.4452 83.4968 47.1983ZM83.3492 50.6715C83.0815 51.2147 82.7625 51.6467 82.4107 51.9427C82.0589 52.2387 81.6812 52.3927 81.2994 52.3959H81.2804C80.707 52.3954 80.1464 52.0568 79.6693 51.4225C79.1921 50.7882 78.8196 49.8867 78.5986 48.8312C78.3776 47.7757 78.318 46.6134 78.4273 45.4905C78.5365 44.3676 78.8098 43.3343 79.2127 42.5204C79.4212 42.0999 79.7048 41.8617 80.0012 41.8579C80.2977 41.8542 80.5828 42.0852 80.7939 42.5003L83.3402 47.515C83.5509 47.9316 83.6701 48.4979 83.6718 49.0896C83.6735 49.6813 83.5574 50.2502 83.3492 50.6715Z" fill="#3F3D56"/>
<path d="M92.014 65.2333L89.2068 59.7025C89.0228 59.3406 88.7742 59.1392 88.5158 59.1424C88.2574 59.1456 88.0101 59.3531 87.8283 59.7195C87.6009 60.1779 87.4209 60.7212 87.2988 61.3183C87.1767 61.9155 87.1148 62.5548 87.1166 63.1998C87.1184 63.8447 87.184 64.4826 87.3095 65.0769C87.435 65.6713 87.6179 66.2105 87.848 66.6637C88.078 67.1169 88.3505 67.4752 88.65 67.7182C88.9495 67.9611 89.2701 68.0839 89.5934 68.0795C89.9167 68.0752 90.2364 67.9437 90.5342 67.6927C90.832 67.4417 91.1021 67.0761 91.329 66.6167L92.014 65.2333Z" fill="#2218DE"/>
<path d="M83.66 48.774L80.8528 43.2432C80.6687 42.8813 80.4202 42.6799 80.1618 42.6831C79.9034 42.6863 79.6561 42.8938 79.4743 43.2602C79.2469 43.7186 79.0669 44.2619 78.9448 44.8591C78.8227 45.4562 78.7608 46.0955 78.7626 46.7405C78.7644 47.3854 78.83 48.0233 78.9555 48.6176C79.081 49.212 79.2639 49.7512 79.494 50.2044C79.724 50.6576 79.9965 51.0159 80.296 51.2589C80.5955 51.5018 80.9161 51.6246 81.2394 51.6202C81.5627 51.6159 81.8824 51.4845 82.1802 51.2335C82.478 50.9825 82.7481 50.6168 82.975 50.1575L83.66 48.774Z" fill="#2218DE"/>
<path d="M88.9293 68.678L88.8622 69.0305C88.5468 68.7918 88.2412 68.5524 87.9452 68.3122C82.7028 64.0448 80.2001 59.0502 78.5261 49.5695L78.525 49.5673C78.4456 49.1211 78.3684 48.6646 78.2935 48.1976L78.4702 48.0839C78.5293 48.533 78.6157 48.9659 78.7274 49.3732C78.8191 49.893 78.9134 50.3994 79.0103 50.8924C80.5837 58.894 82.9041 63.467 87.3525 67.3284C87.5762 67.5225 87.8054 67.7151 88.0402 67.9062C88.3129 68.2606 88.6134 68.5215 88.9293 68.678Z" fill="#3F3D56"/>
<path d="M80.9038 52.436L80.7466 52.7535L86.5546 64.1967L86.7118 63.8792L80.9038 52.436Z" fill="#3F3D56"/>
<path d="M31.7322 42.9542L31.7351 35.6234L29.5749 36.0085L30.3373 40.632L27.5699 49.0004C27.3969 49.0779 27.2389 49.2541 27.1152 49.5077C26.9915 49.7612 26.9074 50.081 26.8733 50.4282C26.8391 50.7753 26.8563 51.1348 26.9228 51.4628C26.9893 51.7908 27.1022 52.0731 27.2477 52.2753C27.3932 52.4775 27.5651 52.5909 27.7424 52.6016C27.9197 52.6123 28.0947 52.5199 28.2461 52.3357C28.3975 52.1514 28.5187 51.8832 28.595 51.5639C28.6714 51.2445 28.6995 50.8878 28.6759 50.5371L31.7322 42.9542Z" fill="#FFB6B6"/>
</g>
<defs>
<clipPath id="clip0_82_58">
<rect width="100" height="100" fill="white" transform="translate(0 0.5)"/>
</clipPath>
</defs>
</svg>
