<svg width="521" height="576" viewBox="0 0 521 576" fill="none" xmlns="http://www.w3.org/2000/svg">
<g clip-path="url(#clip0_75_181)">
<path d="M297.526 123.678C300.266 124.38 302.623 126.123 304.096 128.536C305.57 130.95 306.043 133.843 305.416 136.6C305.28 137.158 305.098 137.705 304.871 138.233L332.638 163.984L313.783 168.416L290.305 143.283C288.187 142.174 286.495 140.396 285.494 138.225C284.493 136.054 284.239 133.613 284.771 131.282C285.086 129.958 285.659 128.71 286.457 127.608C287.255 126.507 288.263 125.573 289.421 124.86C290.58 124.148 291.868 123.67 293.211 123.455C294.555 123.24 295.927 123.292 297.251 123.608C297.343 123.63 297.435 123.653 297.526 123.678Z" fill="#A0616A"/>
<path d="M323.473 152.928L312.645 167.567L339.777 193.218C341.705 195.055 344.071 196.369 346.65 197.034C349.229 197.7 351.935 197.694 354.512 197.019C357.647 196.182 360.425 194.349 362.428 191.795C364.431 189.242 365.549 186.106 365.615 182.862L366.333 123.816C366.411 119.69 364.906 115.69 362.126 112.639C359.345 109.589 355.502 107.72 351.386 107.416C349.382 107.262 347.368 107.505 345.458 108.129C343.547 108.754 341.779 109.749 340.253 111.057C338.728 112.365 337.475 113.96 336.566 115.753C335.657 117.545 335.11 119.499 334.956 121.503C334.943 121.661 334.934 121.82 334.927 121.978C334.899 122.542 334.902 123.106 334.935 123.669L338.235 166.377L323.473 152.928Z" fill="#E6E6E6"/>
<path d="M245.894 387.714L190.85 386.492L212.028 297.649L181.053 212.538L181.133 212.237L204.028 124.621L177.874 44.8645L228.432 24.179L258.249 127.562L258.175 127.833L235.438 211.049L266.43 297.477L266.365 297.761L245.894 387.714ZM193.37 384.547L244.306 385.679L264.35 297.602L233.342 211.13L256.172 127.576L227.128 26.8733L180.354 46.01L206.112 124.557L206.037 124.842L183.146 212.441L214.113 297.53L214.043 297.821L193.37 384.547Z" fill="#3F3D56"/>
<path d="M314.082 567.826C306.861 568.462 299.588 567.478 292.796 564.944C286.004 562.41 279.863 558.391 274.823 553.181C268.232 546.232 263.71 537.288 259.336 528.639C258.062 526.122 256.746 523.519 255.407 521.025C253.915 518.305 253.27 515.201 253.558 512.112C253.845 509.023 255.051 506.091 257.019 503.693C258.906 501.296 261.467 499.519 264.373 498.59C267.278 497.662 270.395 497.625 273.322 498.484L273.96 498.669L279.705 521.083C280.562 517.739 282.401 510.207 283.562 502.827L283.66 502.208L284.232 502.463C290.23 505.117 295.87 508.516 301.018 512.579C310.139 519.895 317.557 529.109 322.757 539.582C327.958 550.054 330.815 561.533 331.13 573.222L331.146 573.919L314.082 567.826Z" fill="#F2F2F2"/>
<path d="M230.39 38.0893C230.39 42.5605 229.242 46.9567 227.057 50.8576C224.872 54.7584 221.722 58.0334 217.91 60.3693C217.338 60.7337 216.747 61.0675 216.14 61.3693C213.966 62.4928 211.642 63.3009 209.24 63.7693C208.57 63.8993 207.89 63.9993 207.2 64.0693C206.215 64.1902 205.223 64.2503 204.23 64.2493C201.387 64.2539 198.563 63.7911 195.87 62.8793V62.8693C195.003 62.5908 194.154 62.2568 193.33 61.8693C188.984 59.8822 185.266 56.7413 182.581 52.7884C179.896 48.8354 178.346 44.2217 178.1 39.4493C178.08 38.9993 178.07 38.5393 178.07 38.0893C178.07 37.8793 178.07 37.6592 178.08 37.4493C178.248 30.5688 181.121 24.0317 186.076 19.255C191.031 14.4783 197.669 11.8469 204.551 11.9311C211.433 12.0153 218.005 14.8084 222.841 19.7049C227.678 24.6014 230.39 31.2067 230.39 38.0893Z" fill="#E6E6E6"/>
<path d="M257.39 124.589C257.39 124.919 257.38 125.239 257.36 125.569C257.345 126.238 257.295 126.906 257.21 127.569C256.604 132.827 254.419 137.778 250.943 141.769C247.468 145.761 242.864 148.606 237.74 149.929C236.94 150.129 236.14 150.299 235.32 150.429C233.967 150.643 232.6 150.75 231.23 150.749C229.978 150.751 228.728 150.661 227.49 150.479C226.81 150.389 226.13 150.259 225.47 150.109C222.19 149.378 219.085 148.013 216.33 146.089C215.76 145.699 215.2 145.279 214.67 144.839C211.563 142.3 209.083 139.08 207.42 135.428C205.758 131.777 204.958 127.791 205.083 123.781C205.207 119.771 206.253 115.843 208.14 112.302C210.026 108.76 212.702 105.701 215.96 103.359V103.349C216.52 102.936 217.101 102.552 217.7 102.199C220.662 100.396 223.958 99.209 227.39 98.7093C228.07 98.6093 228.76 98.5393 229.45 98.4993C230.04 98.4493 230.63 98.4293 231.23 98.4293C233.371 98.4274 235.503 98.6894 237.58 99.2093C238.386 99.4069 239.18 99.6473 239.96 99.9293C245.06 101.731 249.475 105.071 252.597 109.487C255.719 113.904 257.393 119.181 257.39 124.589Z" fill="#E6E6E6"/>
<path d="M234.39 211.089C234.39 215.202 233.419 219.256 231.556 222.923C229.693 226.589 226.991 229.764 223.67 232.189C223.131 232.596 222.57 232.973 221.99 233.319C219.994 234.571 217.833 235.537 215.57 236.189C214.92 236.389 214.26 236.559 213.59 236.699C210.034 237.436 206.365 237.433 202.81 236.689C201.948 236.51 201.097 236.283 200.26 236.009C195.206 234.391 190.763 231.276 187.52 227.075C184.277 222.875 182.387 217.788 182.1 212.489C182.08 212.019 182.07 211.559 182.07 211.089C182.07 210.889 182.07 210.689 182.08 210.489C182.179 206.041 183.412 201.692 185.662 197.854C187.913 194.016 191.106 190.817 194.94 188.559C195.717 188.09 196.522 187.669 197.35 187.299C200.763 185.734 204.475 184.925 208.23 184.929C208.47 184.929 208.71 184.929 208.95 184.949C209.639 184.957 210.326 185.001 211.01 185.079C213.541 185.339 216.018 185.976 218.36 186.969C218.99 187.229 219.6 187.509 220.2 187.829C224.476 190.026 228.063 193.36 230.567 197.463C233.07 201.567 234.393 206.282 234.39 211.089Z" fill="#E6E6E6"/>
<path d="M265.39 297.539V297.589C265.39 298.249 265.36 298.899 265.3 299.539C264.904 304.878 262.878 309.965 259.495 314.115C256.113 318.264 251.539 321.275 246.39 322.739V322.749C245.64 322.969 244.879 323.149 244.11 323.289C242.501 323.595 240.868 323.749 239.23 323.749C238.19 323.752 237.152 323.688 236.12 323.559C235.45 323.489 234.78 323.379 234.12 323.249C230.649 322.564 227.354 321.176 224.44 319.169C223.845 318.768 223.271 318.338 222.72 317.879C219.883 315.572 217.562 312.695 215.906 309.435C214.25 306.175 213.296 302.604 213.106 298.953C212.915 295.301 213.493 291.65 214.801 288.236C216.109 284.821 218.119 281.719 220.7 279.129V279.119C221.21 278.609 221.74 278.119 222.29 277.659C224.846 275.474 227.805 273.81 231 272.759C231.64 272.539 232.28 272.349 232.94 272.189C234.998 271.681 237.11 271.426 239.23 271.429C239.61 271.429 239.99 271.439 240.37 271.459C241.15 271.489 241.93 271.559 242.69 271.659V271.669H242.7C248.974 272.502 254.732 275.584 258.905 280.342C263.078 285.1 265.382 291.211 265.39 297.539Z" fill="#E6E6E6"/>
<path d="M244.39 384.089C244.39 390.903 241.731 397.448 236.979 402.332C232.227 407.216 225.757 410.053 218.946 410.239C212.134 410.425 205.519 407.946 200.507 403.33C195.495 398.713 192.483 392.323 192.11 385.519C192.08 385.039 192.07 384.569 192.07 384.089C192.07 383.899 192.07 383.709 192.08 383.519C192.175 378.913 193.487 374.414 195.883 370.478C198.278 366.542 201.672 363.31 205.72 361.109C206.586 360.633 207.481 360.212 208.4 359.849C211.521 358.576 214.86 357.924 218.23 357.929C218.82 357.929 219.41 357.949 220 357.989C220.7 358.039 221.39 358.109 222.07 358.209C224.487 358.56 226.842 359.257 229.06 360.279C229.67 360.549 230.27 360.849 230.86 361.179C234.96 363.436 238.379 366.753 240.759 370.783C243.14 374.813 244.393 379.409 244.39 384.089Z" fill="#E6E6E6"/>
<path d="M437.12 19.3893C471.663 88.0744 402.944 78.4879 392.541 77.621C372.501 75.951 355.197 81.3554 357.064 35.6089C357.884 15.5167 379.901 0 400.01 0C420.119 0 428.085 1.42435 437.12 19.3893Z" fill="#2F2E41"/>
<path d="M428.263 545.794L442.779 545.793L449.685 489.801L428.26 489.802L428.263 545.794Z" fill="#A0616A"/>
<path d="M447.61 547.101V537.259L443.793 537.492L428.258 538.413L424.663 538.634L421.914 571.593L421.767 573.36H432.075L432.406 571.605L433.903 563.629L437.768 571.605L438.615 573.36H465.942C467.568 573.35 469.125 572.699 470.274 571.547C471.422 570.396 472.071 568.839 472.078 567.213C473.231 561.826 450.505 550.181 447.61 547.101Z" fill="#2F2E41"/>
<path d="M362.977 545.794L348.461 545.793L341.555 489.801L362.98 489.802L362.977 545.794Z" fill="#A0616A"/>
<path d="M343.63 547.101V537.259L347.447 537.492L362.982 538.413L366.577 538.634L369.326 571.593L369.473 573.36H359.165L358.834 571.605L357.337 563.629L353.472 571.605L352.625 573.36H325.298C323.672 573.35 322.115 572.699 320.967 571.547C319.818 570.396 319.169 568.839 319.162 567.213C318.009 561.826 340.735 550.181 343.63 547.101Z" fill="#2F2E41"/>
<path d="M341.318 265.487C341.318 265.487 331.333 321.384 336.71 352.875C337.12 360.389 331.274 382.965 332.12 409.389C333.51 452.823 341.719 506.326 339.12 518.389L367.12 516.389C367.12 516.389 368.052 504.593 369.618 486.501C369.805 484.337 366.915 481.724 367.12 479.389C367.359 476.665 370.696 474.191 370.958 471.262C371.174 468.837 371.398 466.349 371.629 463.799C371.813 461.772 368.927 460.484 369.12 458.389C369.358 455.795 372.677 452.377 372.928 449.693C374.453 433.378 376.199 415.574 378.067 398.109C379.294 386.635 380.574 375.308 381.878 364.645C382.161 362.333 379.835 359.634 380.12 357.389C380.411 355.095 383.314 353.256 383.606 351.044C384.018 347.933 387.707 347.31 388.12 344.389C388.451 342.047 385.506 337.369 385.838 335.166C389.079 313.609 392.299 299.136 395.085 299.34C397.384 299.508 400.026 309.476 402.761 325.047C403.106 327.012 406.773 329.255 407.12 331.389C407.48 333.604 404.522 335.716 404.884 338.096C405.269 340.627 403.734 343.694 404.12 346.389C404.492 348.993 406.785 351.221 407.156 353.958C411.331 384.708 415.41 423.173 418.521 454.842C418.765 457.319 421.889 460.002 422.12 462.389C422.365 464.917 419.716 467.142 419.946 469.552C420.26 472.842 424.836 476.353 425.12 479.389C425.401 482.394 421.392 484.926 421.642 487.641C423.196 504.513 424.12 515.389 424.12 515.389L452.12 516.389C452.12 516.389 451.156 359.961 455.765 344.215C460.373 328.47 457.301 271.785 445.779 265.487C434.258 259.189 341.318 265.487 341.318 265.487Z" fill="#2F2E41"/>
<path d="M380.854 81.9031L377.453 98.911L343.12 110.389L355.421 203.226L342.178 263.25C338.763 267.207 337.457 271.193 339.536 275.226L452.12 276.389C454.24 272.339 454.966 268.35 452.12 264.389L447.12 256.389L442.12 244.389L443.12 239.389L440.59 228.517L438.667 221.713L435.421 210.226L455.614 116.822L419.63 102.88L413.169 81.9031L380.854 81.9031Z" fill="#E6E6E6"/>
<path d="M393.394 73.5264C408.907 73.5264 421.483 60.9505 421.483 45.4375C421.483 29.9244 408.907 17.3485 393.394 17.3485C377.881 17.3485 365.305 29.9244 365.305 45.4375C365.305 60.9505 377.881 73.5264 393.394 73.5264Z" fill="#A0616A"/>
<path d="M429.885 34.6753C426.515 38.0083 423.798 40.2769 418.682 40.2769C405.742 43.2364 393.428 44.9449 382.551 43.8433C383.007 41.0955 382.599 38.2739 381.384 35.7676C381.239 37.2083 380.79 38.6017 380.065 39.8555C379.341 41.1094 378.359 42.1949 377.183 43.0403C374.12 42.4423 371.131 41.5158 368.267 40.2769C364.27 40.2817 360.377 38.9984 357.167 36.6172C351.686 12.9784 372.422 4.88404 393.941 7.60086C396.455 7.12044 399.009 6.87663 401.569 6.87262C417.608 6.87262 427.98 16.8996 429.885 34.6753Z" fill="#2F2E41"/>
<path d="M226.59 152.389C226.52 152.549 226.44 152.699 226.36 152.849L214.99 175.299C214.15 176.969 213.38 178.659 212.68 180.389H210.53C211.314 178.344 212.206 176.341 213.2 174.389L224.36 152.389H226.59Z" fill="#3F3D56"/>
<path d="M227.78 94.3893H225.58C223.321 89.5016 220.47 84.9104 217.09 80.7193C213.547 76.3298 210.564 71.5161 208.21 66.3893H210.43C212.644 71.0588 215.403 75.4494 218.65 79.4693C222.329 84.0243 225.399 89.04 227.78 94.3893Z" fill="#3F3D56"/>
<path d="M231.11 268.389H228.89L215.37 240.389H217.6L231.11 268.389Z" fill="#3F3D56"/>
<path d="M232.95 326.389H235.1C234.95 326.779 234.8 327.159 234.64 327.549L223.64 354.389H221.48L232.79 326.789C232.84 326.659 232.9 326.519 232.95 326.389Z" fill="#3F3D56"/>
<path d="M242.95 326.389H245.1C244.95 326.779 244.8 327.159 244.64 327.549L233.64 354.389H231.48L242.79 326.789C242.84 326.659 242.9 326.519 242.95 326.389Z" fill="#3F3D56"/>
<path d="M236.59 152.389C236.51 152.539 236.44 152.699 236.36 152.849L224.99 175.299C224.14 176.969 223.37 178.666 222.68 180.389H220.52C221.312 178.346 222.207 176.343 223.2 174.389L234.36 152.389H236.59Z" fill="#3F3D56"/>
<path d="M237.77 94.3893H235.58C233.319 89.5029 230.468 84.912 227.09 80.7193C223.547 76.3298 220.564 71.5161 218.21 66.3893H220.42C222.645 71.055 225.407 75.4448 228.65 79.4693C232.326 84.0246 235.392 89.0403 237.77 94.3893Z" fill="#3F3D56"/>
<path d="M241.11 268.389H238.89L225.38 240.389H227.6L241.11 268.389Z" fill="#3F3D56"/>
<path d="M219.95 326.389H222.1C221.95 326.779 221.8 327.159 221.64 327.549L210.64 354.389H208.48L219.79 326.789C219.84 326.659 219.9 326.519 219.95 326.389Z" fill="#3F3D56"/>
<path d="M213.59 152.389C213.51 152.549 213.44 152.699 213.36 152.849L201.99 175.299C201.14 176.969 200.373 178.666 199.69 180.389H197.53C198.319 178.346 199.21 176.343 200.2 174.389L211.36 152.389H213.59Z" fill="#3F3D56"/>
<path d="M214.78 94.3893H212.59C210.328 89.5013 207.473 84.9102 204.09 80.7193C200.549 76.3283 197.566 71.5148 195.21 66.3893H197.42C199.643 71.0557 202.405 75.4457 205.65 79.4693C209.325 84.0273 212.394 89.0424 214.78 94.3893Z" fill="#3F3D56"/>
<path d="M204.6 240.389L218.11 268.389H215.89L202.37 240.389H204.6Z" fill="#3F3D56"/>
<path d="M66 29.5693H13C9.55219 29.5693 6.24559 30.9389 3.80762 33.3769C1.36964 35.8149 0 39.1215 0 42.5693C0 46.0171 1.36964 49.3237 3.80762 51.7617C6.24559 54.1996 9.55219 55.5693 13 55.5693H66C69.4478 55.5693 72.7544 54.1996 75.1924 51.7617C77.6304 49.3237 79 46.0171 79 42.5693C79 39.1215 77.6304 35.8149 75.1924 33.3769C72.7544 30.9389 69.4478 29.5693 66 29.5693Z" fill="#2218DE"/>
<path d="M194.096 37.2198L91.6763 38.6989L91.7052 40.6989L194.125 39.2198L194.096 37.2198Z" fill="#3F3D56"/>
<path d="M85 375.569H32C28.5522 375.569 25.2456 376.939 22.8076 379.377C20.3696 381.815 19 385.121 19 388.569C19 392.017 20.3696 395.324 22.8076 397.762C25.2456 400.2 28.5522 401.569 32 401.569H85C88.4478 401.569 91.7544 400.2 94.1924 397.762C96.6304 395.324 98 392.017 98 388.569C98 385.121 96.6304 381.815 94.1924 379.377C91.7544 376.939 88.4478 375.569 85 375.569Z" fill="#2218DE"/>
<path d="M213.094 383.221L110.675 384.7L110.704 386.7L213.123 385.221L213.094 383.221Z" fill="#3F3D56"/>
<path d="M73 202.569H20C16.5522 202.569 13.2456 203.939 10.8076 206.377C8.36964 208.815 7 212.121 7 215.569C7 219.017 8.36964 222.324 10.8076 224.762C13.2456 227.2 16.5522 228.569 20 228.569H73C76.4478 228.569 79.7544 227.2 82.1924 224.762C84.6304 222.324 86 219.017 86 215.569C86 212.121 84.6304 208.815 82.1924 206.377C79.7544 203.939 76.4478 202.569 73 202.569Z" fill="#2218DE"/>
<path d="M201.095 210.221L98.6757 211.7L98.7045 213.7L201.124 212.221L201.095 210.221Z" fill="#3F3D56"/>
<path d="M414.24 117.569H361.24C357.792 117.569 354.486 118.939 352.048 121.377C349.61 123.815 348.24 127.121 348.24 130.569C348.24 134.017 349.61 137.324 352.048 139.762C354.486 142.2 357.792 143.569 361.24 143.569H414.24C417.688 143.569 420.994 142.2 423.432 139.762C425.87 137.324 427.24 134.017 427.24 130.569C427.24 127.121 425.87 123.815 423.432 121.377C420.994 118.939 417.688 117.569 414.24 117.569Z" fill="#2218DE"/>
<path d="M348.585 128.696L233.117 127.217L233.146 125.217L348.614 126.696L348.585 128.696Z" fill="#3F3D56"/>
<path d="M424.24 289.569H371.24C367.792 289.569 364.486 290.939 362.048 293.377C359.61 295.815 358.24 299.121 358.24 302.569C358.24 306.017 359.61 309.324 362.048 311.762C364.486 314.2 367.792 315.569 371.24 315.569H424.24C427.688 315.569 430.994 314.2 433.432 311.762C435.87 309.324 437.24 306.017 437.24 302.569C437.24 299.121 435.87 295.815 433.432 293.377C430.994 290.939 427.688 289.569 424.24 289.569Z" fill="#2218DE"/>
<path d="M243.146 297.217L243.117 299.217L345.536 300.696L345.565 298.696L243.146 297.217Z" fill="#3F3D56"/>
<path d="M519.33 575.416L240.58 575.724C240.264 575.724 239.961 575.598 239.738 575.375C239.514 575.152 239.389 574.849 239.389 574.533C239.389 574.217 239.514 573.914 239.738 573.691C239.961 573.468 240.264 573.342 240.58 573.342L519.33 573.035C519.486 573.035 519.641 573.066 519.785 573.126C519.93 573.186 520.061 573.273 520.172 573.384C520.282 573.494 520.37 573.626 520.43 573.77C520.49 573.915 520.52 574.069 520.52 574.226C520.52 574.382 520.49 574.537 520.43 574.681C520.37 574.826 520.282 574.957 520.172 575.068C520.061 575.178 519.93 575.266 519.785 575.326C519.641 575.386 519.486 575.416 519.33 575.416Z" fill="#CACACA"/>
<path d="M393.526 129.678C396.266 130.38 398.623 132.123 400.096 134.536C401.57 136.95 402.043 139.843 401.416 142.6C401.28 143.158 401.098 143.705 400.871 144.233L428.638 169.984L409.783 174.416L386.305 149.283C384.187 148.174 382.495 146.396 381.494 144.225C380.493 142.054 380.239 139.613 380.771 137.282C381.086 135.958 381.659 134.71 382.457 133.608C383.255 132.507 384.263 131.573 385.421 130.86C386.58 130.148 387.868 129.67 389.211 129.455C390.555 129.24 391.927 129.292 393.251 129.608C393.343 129.63 393.435 129.653 393.526 129.678Z" fill="#A0616A"/>
<path d="M419.473 158.928L408.645 173.567L435.777 199.218C437.705 201.055 440.071 202.369 442.65 203.034C445.229 203.7 447.935 203.694 450.512 203.019C453.647 202.182 456.425 200.349 458.428 197.795C460.431 195.242 461.549 192.106 461.615 188.862L462.333 129.816C462.411 125.69 460.906 121.69 458.126 118.639C455.345 115.589 451.502 113.72 447.386 113.416C445.382 113.262 443.368 113.505 441.458 114.129C439.547 114.754 437.779 115.749 436.253 117.057C434.728 118.365 433.475 119.96 432.566 121.753C431.657 123.545 431.11 125.499 430.956 127.503C430.943 127.661 430.934 127.82 430.927 127.978C430.899 128.542 430.902 129.106 430.935 129.669L434.235 172.377L419.473 158.928Z" fill="#E6E6E6"/>
</g>
<defs>
<clipPath id="clip0_75_181">
<rect width="520.52" height="575.724" fill="white"/>
</clipPath>
</defs>
</svg>
