<svg width="600" height="600" viewBox="0 0 600 600" fill="none" xmlns="http://www.w3.org/2000/svg">
<path d="M109.787 534.161L106.143 519.838C99.6828 517.109 93.0728 514.746 86.3451 512.759L85.8851 519.415L84.0201 512.083C75.6767 509.706 70.0001 508.66 70.0001 508.66C70.0001 508.66 77.6667 537.714 93.7501 559.925L112.488 563.206L97.9309 565.297C99.9539 567.723 102.128 570.019 104.44 572.173C127.833 593.811 153.89 603.739 162.638 594.345C171.387 584.951 159.514 559.8 136.12 538.163C128.87 531.455 119.758 526.072 110.638 521.834L109.787 534.161Z" fill="#F2F2F2"/>
<path d="M144.44 518.606L148.749 504.47C144.634 498.807 140.202 493.379 135.473 488.212L131.628 493.673L133.834 486.435C127.923 480.105 123.607 476.287 123.607 476.287C123.607 476.287 115.1 505.107 117.343 532.405L131.683 544.861L118.133 539.153C118.607 542.272 119.278 545.358 120.141 548.394C128.943 578.967 146.098 600.887 158.459 597.353C170.82 593.818 173.705 566.17 164.903 535.597C162.174 526.119 157.167 516.818 151.558 508.494L144.44 518.606Z" fill="#F2F2F2"/>
<path d="M449.178 142.08H445.882V52.0872C445.882 38.2732 440.375 25.025 430.573 15.2569C420.771 5.48869 407.476 0.000660691 393.613 0H202.269C188.406 0 175.111 5.48774 165.308 15.256C155.506 25.0242 149.998 38.2728 149.998 52.0872V545.804C149.998 552.644 151.35 559.417 153.977 565.737C156.604 572.056 160.454 577.798 165.308 582.635C170.162 587.472 175.924 591.308 182.266 593.926C188.608 596.544 195.405 597.891 202.269 597.891H393.613C407.476 597.891 420.771 592.403 430.574 582.635C440.376 572.867 445.883 559.619 445.883 545.804V206.138H449.18L449.178 142.08Z" fill="#E6E6E6"/>
<path d="M395.72 13.5464H370.746C371.894 16.3526 372.333 19.3972 372.022 22.4119C371.712 25.4267 370.662 28.3191 368.965 30.8343C367.269 33.3496 364.978 35.4105 362.293 36.8354C359.609 38.2604 356.615 39.0058 353.573 39.0058H243.956C240.915 39.0059 237.92 38.2606 235.236 36.8355C232.551 35.4105 230.26 33.3495 228.564 30.8341C226.867 28.3187 225.817 25.4262 225.507 22.4113C225.197 19.3964 225.635 16.3517 226.784 13.5456H203.458C193.105 13.5456 183.176 17.6438 175.855 24.9387C168.534 32.2336 164.422 42.1277 164.422 52.4442V545.444C164.422 555.761 168.534 565.655 175.855 572.949C183.176 580.244 193.105 584.343 203.458 584.343H395.72C406.073 584.343 416.002 580.244 423.323 572.949C430.643 565.655 434.756 555.761 434.756 545.444V52.4434C434.756 42.1271 430.643 32.2334 423.323 24.9387C416.002 17.644 406.074 13.5458 395.721 13.5456L395.72 13.5464Z" fill="white"/>
<path d="M275.089 209.931C275.089 206.485 275.999 203.099 277.73 200.114C279.46 197.13 281.948 194.653 284.945 192.931C281.951 191.208 278.554 190.301 275.096 190.301C271.638 190.301 268.242 191.208 265.247 192.93C262.252 194.653 259.766 197.131 258.037 200.115C256.308 203.099 255.398 206.484 255.398 209.929C255.398 213.375 256.308 216.76 258.037 219.744C259.766 222.728 262.252 225.206 265.247 226.928C268.242 228.651 271.638 229.558 275.096 229.558C278.554 229.557 281.951 228.65 284.945 226.927C281.949 225.206 279.462 222.729 277.732 219.746C276.002 216.762 275.092 213.377 275.093 209.931H275.089Z" fill="#CCCCCC"/>
<path d="M299.851 209.931C299.85 206.485 300.761 203.099 302.491 200.114C304.221 197.13 306.71 194.653 309.707 192.931C306.712 191.208 303.316 190.301 299.858 190.301C296.4 190.301 293.003 191.208 290.009 192.93C287.014 194.653 284.527 197.131 282.799 200.115C281.07 203.099 280.159 206.484 280.159 209.929C280.159 213.375 281.07 216.76 282.799 219.744C284.527 222.728 287.014 225.206 290.009 226.928C293.003 228.651 296.4 229.558 299.858 229.558C303.316 229.557 306.712 228.65 309.707 226.927C306.711 225.206 304.223 222.729 302.494 219.746C300.764 216.762 299.854 213.377 299.854 209.931H299.851Z" fill="#CCCCCC"/>
<path d="M324.052 229.56C334.93 229.56 343.749 220.772 343.749 209.931C343.749 199.091 334.93 190.303 324.052 190.303C313.173 190.303 304.354 199.091 304.354 209.931C304.354 220.772 313.173 229.56 324.052 229.56Z" fill="#2218DE"/>
<path d="M356.971 271.239H242.168C241.075 271.237 240.028 270.804 239.255 270.034C238.482 269.264 238.047 268.22 238.046 267.131V152.732C238.048 151.644 238.483 150.6 239.256 149.831C240.029 149.062 241.076 148.629 242.168 148.628H356.971C358.064 148.629 359.112 149.062 359.884 149.832C360.657 150.602 361.092 151.646 361.093 152.736V267.126C361.092 268.215 360.657 269.26 359.884 270.03C359.112 270.8 358.064 271.233 356.971 271.234V271.239ZM242.168 150.268C241.513 150.269 240.884 150.529 240.42 150.991C239.957 151.453 239.696 152.08 239.695 152.733V267.131C239.696 267.785 239.957 268.411 240.42 268.873C240.884 269.335 241.513 269.595 242.168 269.596H356.971C357.627 269.595 358.255 269.335 358.719 268.873C359.183 268.411 359.444 267.785 359.444 267.131V152.733C359.444 152.08 359.183 151.453 358.719 150.991C358.255 150.529 357.627 150.269 356.971 150.268H242.168Z" fill="#CCCCCC"/>
<path d="M382.604 358.929H206.534V360.573H382.604V358.929Z" fill="#CCCCCC"/>
<path d="M212.094 348.669C215.165 348.669 217.654 346.188 217.654 343.128C217.654 340.068 215.165 337.588 212.094 337.588C209.023 337.588 206.534 340.068 206.534 343.128C206.534 346.188 209.023 348.669 212.094 348.669Z" fill="#2218DE"/>
<path d="M382.604 414.335H206.534V415.978H382.604V414.335Z" fill="#CCCCCC"/>
<path d="M212.094 404.075C215.165 404.075 217.654 401.595 217.654 398.535C217.654 395.475 215.165 392.994 212.094 392.994C209.023 392.994 206.534 395.475 206.534 398.535C206.534 401.595 209.023 404.075 212.094 404.075Z" fill="#2218DE"/>
<path d="M379.382 477.428H323.738C322.777 477.427 321.856 477.046 321.176 476.369C320.497 475.692 320.115 474.773 320.113 473.816V454.384C320.115 453.427 320.497 452.508 321.176 451.831C321.856 451.154 322.777 450.773 323.738 450.772H379.382C380.343 450.773 381.264 451.154 381.944 451.831C382.623 452.508 383.006 453.427 383.007 454.384V473.816C383.006 474.773 382.623 475.692 381.944 476.369C381.264 477.046 380.343 477.427 379.382 477.428Z" fill="#2218DE"/>
<path d="M230.232 348.669C233.302 348.669 235.792 346.188 235.792 343.128C235.792 340.068 233.302 337.588 230.232 337.588C227.161 337.588 224.672 340.068 224.672 343.128C224.672 346.188 227.161 348.669 230.232 348.669Z" fill="#2218DE"/>
<path d="M248.369 348.669C251.44 348.669 253.929 346.188 253.929 343.128C253.929 340.068 251.44 337.588 248.369 337.588C245.299 337.588 242.809 340.068 242.809 343.128C242.809 346.188 245.299 348.669 248.369 348.669Z" fill="#2218DE"/>
<path d="M230.232 404.075C233.302 404.075 235.792 401.595 235.792 398.535C235.792 395.475 233.302 392.994 230.232 392.994C227.161 392.994 224.672 395.475 224.672 398.535C224.672 401.595 227.161 404.075 230.232 404.075Z" fill="#2218DE"/>
<path d="M248.369 404.075C251.44 404.075 253.929 401.595 253.929 398.535C253.929 395.475 251.44 392.994 248.369 392.994C245.299 392.994 242.809 395.475 242.809 398.535C242.809 401.595 245.299 404.075 248.369 404.075Z" fill="#2218DE"/>
<path d="M597.693 600H2.30667C1.0325 600 0 599.547 0 598.989C0 598.431 1.0325 597.976 2.30667 597.976H597.693C598.967 597.976 600 598.43 600 598.989C600 599.547 598.967 600 597.693 600Z" fill="#E6E6E6"/>
<path d="M521.461 376.091L507.461 403.708L465.609 422.67C461.139 430.197 446.935 430.773 445.901 425.908C444.742 420.447 463.151 411.658 463.151 411.658L498.161 388.061L501.225 367.747L521.461 376.091Z" fill="#FFB9B9"/>
<path d="M519.809 561.418L522.391 582L507.417 583.03L505.868 561.42L519.809 561.418Z" fill="#FFB9B9"/>
<path d="M517.745 578.913C519.083 577.502 520.318 575.998 521.44 574.41C523.585 571.451 525.49 586.63 525.49 586.63C525.49 586.63 527.555 592.804 527.039 595.892C526.522 598.979 514.647 598.979 512.581 598.466C510.515 597.953 500.19 598.466 500.19 598.466H484.7C471.275 592.292 484.7 588.176 484.7 588.176C488.83 587.661 502.771 574.798 502.771 574.798L505.87 569.139C507.935 568.624 510 576.342 510 576.342L517.745 578.913Z" fill="#090814"/>
<path d="M558.536 561.676L561.119 582.257L546.145 583.286L544.596 561.676H558.536Z" fill="#FFB9B9"/>
<path d="M556.469 579.17C557.807 577.76 559.042 576.255 560.164 574.668C562.309 571.708 564.214 586.888 564.214 586.888C564.214 586.888 566.279 592.548 565.763 595.635C565.247 598.721 553.371 598.721 551.305 598.209C549.239 597.696 538.914 598.724 538.914 598.724H523.424C509.999 592.55 523.424 588.433 523.424 588.433C527.554 587.918 541.495 575.055 541.495 575.055L544.594 569.396C546.659 568.881 548.724 576.599 548.724 576.599L556.469 579.17Z" fill="#090814"/>
<path d="M541.494 428.931C543.56 431.505 542.526 440.25 542.526 440.25C542.526 440.25 546.14 468.548 544.591 471.121C543.042 473.694 545.624 475.751 547.175 479.354C548.725 482.956 550.273 491.702 550.273 491.702C559.05 498.905 558.535 531.834 558.535 531.834L561.632 561.162C560.6 564.249 546.142 564.763 544.077 564.249C542.012 563.735 535.815 517.428 535.815 517.428L521.875 491.187C521.875 491.187 522.907 561.161 522.907 564.248C522.907 567.336 508.966 565.792 505.868 565.792C502.77 565.792 502.77 514.34 502.77 514.34L499.671 500.963L483.149 439.736V432.53L485.732 428.929C485.732 428.929 539.429 426.358 541.494 428.931Z" fill="#090814"/>
<path d="M518.778 312.136C527.618 312.136 534.784 304.995 534.784 296.186C534.784 287.376 527.618 280.235 518.778 280.235C509.937 280.235 502.771 287.376 502.771 296.186C502.771 304.995 509.937 312.136 518.778 312.136Z" fill="#FFB9B9"/>
<path d="M510.775 303.645C514.019 310.845 512.098 320.9 505.608 331.944L531.941 319.595L527.81 315.994L528.843 305.704L510.775 303.645Z" fill="#FFB9B9"/>
<path d="M510.772 320.11C507.324 322.153 505.262 325.907 504.077 329.726C501.885 336.798 500.565 344.109 500.147 351.498L498.897 373.62L483.407 432.276C496.832 443.595 504.574 441.022 522.648 431.761C540.723 422.499 542.786 434.85 542.786 434.85C542.786 434.85 544.335 434.335 542.786 432.792C541.237 431.249 542.786 432.792 544.335 431.248C545.884 429.705 544.335 431.248 543.818 429.705C543.302 428.161 543.818 429.19 544.335 428.676C544.852 428.162 542.27 423.527 542.27 423.527L546.401 384.938L551.567 330.4C545.372 322.682 527.817 315.993 527.817 315.993L511.806 327.312C506.639 329.37 510.773 321.138 510.773 321.138L510.772 320.11Z" fill="#2218DE"/>
<path d="M560.083 363.072L562.148 393.943L535.814 431.503C535.814 440.25 531.168 442.308 531.168 442.308C529.408 439.509 527.855 436.586 526.521 433.562C523.938 427.902 528.07 423.271 528.07 423.271L546.142 385.197L538.397 366.16L560.083 363.072Z" fill="#FFB9B9"/>
<path d="M551.309 330.658C560.086 333.746 561.636 367.189 561.636 367.189C551.309 361.529 538.917 370.791 538.917 370.791C538.917 370.791 536.334 362.044 533.237 350.725C532.302 347.541 532.19 344.173 532.912 340.934C533.634 337.695 535.167 334.691 537.368 332.202C537.368 332.202 542.528 327.572 551.309 330.658Z" fill="#2218DE"/>
<path d="M533.492 301.073C531.454 299.448 528.674 302.401 528.674 302.401L527.044 287.781C527.044 287.781 516.856 288.999 510.335 287.375C503.814 285.751 502.796 293.263 502.796 293.263C502.46 290.23 502.392 287.174 502.592 284.129C502.999 280.475 508.298 276.821 517.671 274.382C527.044 271.944 531.934 282.505 531.934 282.505C538.452 285.751 535.529 302.698 533.492 301.073Z" fill="#090814"/>
</svg>
