<svg width="100" height="101" viewBox="0 0 100 101" fill="none" xmlns="http://www.w3.org/2000/svg">
<g clip-path="url(#clip0_75_225)">
<path d="M69.7528 12.6988L69.5612 12.8909L82.7071 24.8424L82.8987 24.6503L69.7528 12.6988Z" fill="#E6E6E6"/>
<path d="M82.9197 23.3543L82.6421 23.3703L82.7259 24.6761L81.3559 24.6603L81.3529 24.9257L83.0215 24.9446L82.9197 23.3543Z" fill="#E6E6E6"/>
<path d="M71.1072 12.6152L71.1042 12.8806L69.7344 12.8649L69.8182 14.1706L69.5404 14.1867L69.439 12.5962L71.1072 12.6152Z" fill="#E6E6E6"/>
<path d="M76.23 20.2298C77.0739 20.2298 77.758 19.5765 77.758 18.7706C77.758 17.9647 77.0739 17.3114 76.23 17.3114C75.386 17.3114 74.7019 17.9647 74.7019 18.7706C74.7019 19.5765 75.386 20.2298 76.23 20.2298Z" fill="#E6E6E6"/>
<path d="M30.525 12.6988L17.3791 24.6503L17.5707 24.8424L30.7166 12.8909L30.525 12.6988Z" fill="#E6E6E6"/>
<path d="M17.2565 24.9446L18.925 24.9257L18.9219 24.6603L17.552 24.6761L17.6358 23.3703L17.3582 23.3543L17.2565 24.9446Z" fill="#E6E6E6"/>
<path d="M30.8389 12.5962L30.7374 14.1867L30.4598 14.1706L30.5434 12.8649L29.1735 12.8806L29.1705 12.6152L30.8389 12.5962Z" fill="#E6E6E6"/>
<path d="M24.0478 20.2298C24.8918 20.2298 25.5759 19.5765 25.5759 18.7706C25.5759 17.9647 24.8918 17.3114 24.0478 17.3114C23.2039 17.3114 22.5198 17.9647 22.5198 18.7706C22.5198 19.5765 23.2039 20.2298 24.0478 20.2298Z" fill="#E6E6E6"/>
<path d="M61.53 30.7449H38.47C38.1386 30.7445 37.8208 30.6186 37.5864 30.3948C37.352 30.171 37.2202 29.8675 37.2198 29.551V1.69388C37.2202 1.37735 37.352 1.0739 37.5864 0.850078C37.8208 0.62626 38.1386 0.50036 38.47 0.5H61.53C61.8614 0.50036 62.1792 0.62626 62.4136 0.850078C62.648 1.0739 62.7798 1.37735 62.7802 1.69388V29.551C62.7798 29.8675 62.648 30.171 62.4136 30.3948C62.1792 30.6186 61.8614 30.7445 61.53 30.7449ZM38.47 0.765307C38.2122 0.765583 37.9651 0.863503 37.7828 1.03758C37.6005 1.21167 37.4979 1.44769 37.4976 1.69388V29.551C37.4979 29.7972 37.6005 30.0332 37.7828 30.2073C37.9651 30.3814 38.2122 30.4793 38.47 30.4796H61.53C61.7878 30.4793 62.035 30.3814 62.2173 30.2073C62.3995 30.0332 62.5021 29.7972 62.5024 29.551V1.69388C62.5021 1.44769 62.3995 1.21167 62.2173 1.03758C62.035 0.863503 61.7878 0.765583 61.53 0.765307H38.47Z" fill="#3F3D56"/>
<path d="M48.0818 13.8902H43.0058C42.8401 13.89 42.6812 13.8271 42.564 13.7152C42.4468 13.6033 42.3809 13.4515 42.3807 13.2933V7.57332C42.3809 7.41505 42.4468 7.26332 42.564 7.15141C42.6812 7.0395 42.8401 6.97655 43.0058 6.97638H48.0818C48.2475 6.97655 48.4064 7.0395 48.5236 7.15141C48.6408 7.26332 48.7067 7.41505 48.7069 7.57332V13.2933C48.7067 13.4515 48.6408 13.6033 48.5236 13.7152C48.4064 13.8271 48.2475 13.89 48.0818 13.8902Z" fill="#2218DE"/>
<path d="M57.9447 16.5433H52.8688C52.703 16.5431 52.5441 16.4802 52.427 16.3682C52.3098 16.2563 52.2438 16.1046 52.2437 15.9463V10.2264C52.2438 10.0681 52.3098 9.9164 52.427 9.80449C52.5441 9.69258 52.703 9.62963 52.8688 9.62946H57.9447C58.1105 9.62963 58.2694 9.69258 58.3866 9.80449C58.5037 9.9164 58.5697 10.0681 58.5699 10.2264V15.9463C58.5697 16.1046 58.5037 16.2563 58.3866 16.3682C58.2694 16.4802 58.1105 16.5431 57.9447 16.5433Z" fill="#CCCCCC"/>
<path d="M50.0266 24.6351H44.9506C44.7849 24.635 44.626 24.572 44.5088 24.4601C44.3916 24.3482 44.3257 24.1965 44.3255 24.0382V18.3183C44.3257 18.16 44.3916 18.0083 44.5088 17.8963C44.626 17.7844 44.7849 17.7215 44.9506 17.7213H50.0266C50.1923 17.7215 50.3512 17.7844 50.4684 17.8963C50.5856 18.0083 50.6515 18.16 50.6517 18.3183V24.0382C50.6515 24.1965 50.5856 24.3482 50.4684 24.4601C50.3512 24.572 50.1923 24.635 50.0266 24.6351Z" fill="#FF6584"/>
<path d="M98.7497 59.3889H75.6898C75.3583 59.3885 75.0406 59.2626 74.8062 59.0388C74.5718 58.815 74.44 58.5115 74.4396 58.195V30.3379C74.44 30.0213 74.5718 29.7179 74.8062 29.4941C75.0406 29.2702 75.3583 29.1443 75.6898 29.144H98.7497C99.0812 29.1443 99.399 29.2702 99.6334 29.4941C99.8678 29.7179 99.9996 30.0213 100 30.3379V58.195C99.9996 58.5115 99.8678 58.815 99.6334 59.0388C99.399 59.2626 99.0812 59.3885 98.7497 59.3889ZM75.6898 29.4093C75.432 29.4096 75.1848 29.5075 75.0025 29.6816C74.8202 29.8556 74.7177 30.0917 74.7174 30.3379V58.195C74.7177 58.4412 74.8202 58.6772 75.0025 58.8513C75.1848 59.0254 75.432 59.1233 75.6898 59.1236H98.7497C99.0076 59.1233 99.2547 59.0254 99.437 58.8513C99.6193 58.6772 99.7219 58.4412 99.7222 58.195V30.3379C99.7219 30.0917 99.6193 29.8556 99.437 29.6816C99.2547 29.5075 99.0076 29.4096 98.7497 29.4093H75.6898Z" fill="#3F3D56"/>
<path d="M91.1789 35.3124H83.2607C83.1133 35.3124 82.972 35.2565 82.8678 35.157C82.7636 35.0575 82.705 34.9225 82.705 34.7818C82.705 34.641 82.7636 34.5061 82.8678 34.4066C82.972 34.3071 83.1133 34.2512 83.2607 34.2512H91.1789C91.3263 34.2512 91.4676 34.3071 91.5718 34.4066C91.676 34.5061 91.7345 34.641 91.7345 34.7818C91.7345 34.9225 91.676 35.0575 91.5718 35.157C91.4676 35.2565 91.3263 35.3124 91.1789 35.3124Z" fill="#2218DE"/>
<path d="M95.0685 40.3532H79.3711C79.298 40.3533 79.2257 40.3396 79.1581 40.313C79.0906 40.2864 79.0292 40.2474 78.9775 40.1981C78.9258 40.1488 78.8848 40.0902 78.8568 40.0258C78.8289 39.9614 78.8145 39.8923 78.8145 39.8225C78.8145 39.7528 78.8289 39.6837 78.8568 39.6193C78.8848 39.5548 78.9258 39.4963 78.9775 39.447C79.0292 39.3977 79.0906 39.3587 79.1581 39.3321C79.2257 39.3054 79.298 39.2918 79.3711 39.2919H95.0685C95.1416 39.2918 95.2139 39.3054 95.2814 39.3321C95.349 39.3587 95.4103 39.3977 95.462 39.447C95.5137 39.4963 95.5548 39.5548 95.5827 39.6193C95.6107 39.6837 95.6251 39.7528 95.6251 39.8225C95.6251 39.8923 95.6107 39.9614 95.5827 40.0258C95.5548 40.0902 95.5137 40.1488 95.462 40.1981C95.4103 40.2474 95.349 40.2864 95.2814 40.313C95.2139 40.3396 95.1416 40.3533 95.0685 40.3532Z" fill="#CCCCCC"/>
<path d="M95.0685 43.1389H79.3711C79.298 43.139 79.2257 43.1253 79.1581 43.0987C79.0906 43.0721 79.0292 43.0331 78.9775 42.9838C78.9258 42.9345 78.8848 42.876 78.8568 42.8115C78.8289 42.7471 78.8145 42.678 78.8145 42.6082C78.8145 42.5385 78.8289 42.4694 78.8568 42.405C78.8848 42.3405 78.9258 42.282 78.9775 42.2327C79.0292 42.1834 79.0906 42.1444 79.1581 42.1178C79.2257 42.0911 79.298 42.0775 79.3711 42.0776H95.0685C95.1416 42.0775 95.2139 42.0911 95.2814 42.1178C95.349 42.1444 95.4103 42.1834 95.462 42.2327C95.5137 42.282 95.5548 42.3405 95.5827 42.405C95.6107 42.4694 95.6251 42.5385 95.6251 42.6082C95.6251 42.678 95.6107 42.7471 95.5827 42.8115C95.5548 42.876 95.5137 42.9345 95.462 42.9838C95.4103 43.0331 95.349 43.0721 95.2814 43.0987C95.2139 43.1253 95.1416 43.139 95.0685 43.1389Z" fill="#CCCCCC"/>
<path d="M95.0685 45.9246H79.3711C79.298 45.9247 79.2257 45.9111 79.1581 45.8845C79.0906 45.8579 79.0292 45.8188 78.9775 45.7695C78.9258 45.7203 78.8848 45.6617 78.8568 45.5973C78.8289 45.5328 78.8145 45.4638 78.8145 45.394C78.8145 45.3243 78.8289 45.2552 78.8568 45.1907C78.8848 45.1263 78.9258 45.0678 78.9775 45.0185C79.0292 44.9692 79.0906 44.9301 79.1581 44.9035C79.2257 44.8769 79.298 44.8633 79.3711 44.8634H95.0685C95.1416 44.8633 95.2139 44.8769 95.2814 44.9035C95.349 44.9301 95.4103 44.9692 95.462 45.0185C95.5137 45.0678 95.5548 45.1263 95.5827 45.1907C95.6107 45.2552 95.6251 45.3243 95.6251 45.394C95.6251 45.4638 95.6107 45.5328 95.5827 45.5973C95.5548 45.6617 95.5137 45.7203 95.462 45.7695C95.4103 45.8188 95.349 45.8579 95.2814 45.8845C95.2139 45.9111 95.1416 45.9247 95.0685 45.9246Z" fill="#CCCCCC"/>
<path d="M95.0685 48.7103H79.3711C79.298 48.7105 79.2257 48.6968 79.1581 48.6702C79.0906 48.6436 79.0292 48.6045 78.9775 48.5552C78.9258 48.506 78.8848 48.4474 78.8568 48.383C78.8289 48.3186 78.8145 48.2495 78.8145 48.1797C78.8145 48.11 78.8289 48.0409 78.8568 47.9765C78.8848 47.912 78.9258 47.8535 78.9775 47.8042C79.0292 47.7549 79.0906 47.7158 79.1581 47.6892C79.2257 47.6626 79.298 47.649 79.3711 47.6491H95.0685C95.1416 47.649 95.2139 47.6626 95.2814 47.6892C95.349 47.7158 95.4103 47.7549 95.462 47.8042C95.5137 47.8535 95.5548 47.912 95.5827 47.9765C95.6107 48.0409 95.6251 48.11 95.6251 48.1797C95.6251 48.2495 95.6107 48.3186 95.5827 48.383C95.5548 48.4474 95.5137 48.506 95.462 48.5552C95.4103 48.6045 95.349 48.6436 95.2814 48.6702C95.2139 48.6968 95.1416 48.7105 95.0685 48.7103Z" fill="#CCCCCC"/>
<path d="M95.0685 51.496H79.3711C79.298 51.4962 79.2257 51.4825 79.1581 51.4559C79.0906 51.4293 79.0292 51.3902 78.9775 51.3409C78.9258 51.2917 78.8848 51.2331 78.8568 51.1687C78.8289 51.1043 78.8145 51.0352 78.8145 50.9654C78.8145 50.8957 78.8289 50.8266 78.8568 50.7622C78.8848 50.6977 78.9258 50.6392 78.9775 50.5899C79.0292 50.5406 79.0906 50.5016 79.1581 50.4749C79.2257 50.4483 79.298 50.4347 79.3711 50.4348H95.0685C95.1416 50.4347 95.2139 50.4483 95.2814 50.4749C95.349 50.5016 95.4103 50.5406 95.462 50.5899C95.5137 50.6392 95.5548 50.6977 95.5827 50.7622C95.6107 50.8266 95.6251 50.8957 95.6251 50.9654C95.6251 51.0352 95.6107 51.1043 95.5827 51.1687C95.5548 51.2331 95.5137 51.2917 95.462 51.3409C95.4103 51.3902 95.349 51.4293 95.2814 51.4559C95.2139 51.4825 95.1416 51.4962 95.0685 51.496Z" fill="#CCCCCC"/>
<path d="M95.0685 54.2817H79.3711C79.298 54.2819 79.2257 54.2682 79.1581 54.2416C79.0906 54.215 79.0292 54.1759 78.9775 54.1267C78.9258 54.0774 78.8848 54.0188 78.8568 53.9544C78.8289 53.89 78.8145 53.8209 78.8145 53.7511C78.8145 53.6814 78.8289 53.6123 78.8568 53.5479C78.8848 53.4834 78.9258 53.4249 78.9775 53.3756C79.0292 53.3263 79.0906 53.2873 79.1581 53.2606C79.2257 53.234 79.298 53.2204 79.3711 53.2205H95.0685C95.1416 53.2204 95.2139 53.234 95.2814 53.2606C95.349 53.2873 95.4103 53.3263 95.462 53.3756C95.5137 53.4249 95.5548 53.4834 95.5827 53.5479C95.6107 53.6123 95.6251 53.6814 95.6251 53.7511C95.6251 53.8209 95.6107 53.89 95.5827 53.9544C95.5548 54.0188 95.5137 54.0774 95.462 54.1267C95.4103 54.1759 95.349 54.215 95.2814 54.2416C95.2139 54.2682 95.1416 54.2819 95.0685 54.2817Z" fill="#CCCCCC"/>
<path d="M24.3102 59.3889H1.25025C0.918784 59.3885 0.601 59.2626 0.366617 59.0388C0.132233 58.815 0.000392293 58.5115 1.52588e-05 58.195V30.3379C0.000392293 30.0213 0.132233 29.7179 0.366617 29.4941C0.601 29.2702 0.918784 29.1443 1.25025 29.144H24.3102C24.6417 29.1443 24.9594 29.2702 25.1938 29.4941C25.4282 29.7179 25.56 30.0213 25.5604 30.3379V58.195C25.56 58.5115 25.4282 58.815 25.1938 59.0388C24.9594 59.2626 24.6417 59.3885 24.3102 59.3889ZM1.25025 29.4093C0.992442 29.4096 0.745276 29.5075 0.562977 29.6816C0.380678 29.8556 0.278133 30.0917 0.277844 30.3379V58.195C0.278133 58.4412 0.380678 58.6772 0.562977 58.8513C0.745276 59.0254 0.992442 59.1233 1.25025 59.1236H24.3102C24.568 59.1233 24.8152 59.0254 24.9975 58.8513C25.1798 58.6772 25.2823 58.4412 25.2826 58.195V30.3379C25.2823 30.0917 25.1798 29.8556 24.9975 29.6816C24.8152 29.5075 24.568 29.4096 24.3102 29.4093H1.25025Z" fill="#3F3D56"/>
<path d="M20.653 35.7211H13.7072C13.5598 35.7211 13.4185 35.6652 13.3143 35.5657C13.2101 35.4662 13.1516 35.3312 13.1516 35.1905C13.1516 35.0497 13.2101 34.9148 13.3143 34.8153C13.4185 34.7158 13.5598 34.6599 13.7072 34.6599H20.653C20.8003 34.6599 20.9417 34.7158 21.0459 34.8153C21.1501 34.9148 21.2086 35.0497 21.2086 35.1905C21.2086 35.3312 21.1501 35.4662 21.0459 35.5657C20.9417 35.6652 20.8003 35.7211 20.653 35.7211Z" fill="#3F3D56"/>
<path d="M20.653 38.5068H13.7072C13.5598 38.5068 13.4185 38.4509 13.3143 38.3514C13.2101 38.2519 13.1516 38.1169 13.1516 37.9762C13.1516 37.8354 13.2101 37.7005 13.3143 37.601C13.4185 37.5015 13.5598 37.4456 13.7072 37.4456H20.653C20.8003 37.4456 20.9417 37.5015 21.0459 37.601C21.1501 37.7005 21.2086 37.8354 21.2086 37.9762C21.2086 38.1169 21.1501 38.2519 21.0459 38.3514C20.9417 38.4509 20.8003 38.5068 20.653 38.5068Z" fill="#3F3D56"/>
<path d="M10.1433 40.093H5.06735C4.90162 40.0928 4.74272 40.0298 4.62553 39.9179C4.50834 39.806 4.44241 39.6543 4.44223 39.496V33.7761C4.44241 33.6178 4.50834 33.4661 4.62553 33.3542C4.74272 33.2423 4.90162 33.1793 5.06735 33.1791H10.1433C10.3091 33.1793 10.4679 33.2423 10.5851 33.3542C10.7023 33.4661 10.7683 33.6178 10.7684 33.7761V39.496C10.7683 39.6543 10.7023 39.806 10.5851 39.9179C10.4679 40.0298 10.3091 40.0928 10.1433 40.093Z" fill="#2218DE"/>
<path d="M20.6048 44.2109H4.90742C4.83437 44.211 4.76201 44.1974 4.69448 44.1708C4.62696 44.1441 4.56559 44.1051 4.51389 44.0558C4.46219 44.0065 4.42117 43.948 4.39319 43.8835C4.3652 43.8191 4.3508 43.75 4.3508 43.6803C4.3508 43.6105 4.3652 43.5414 4.39319 43.477C4.42117 43.4126 4.46219 43.354 4.51389 43.3047C4.56559 43.2555 4.62696 43.2164 4.69448 43.1898C4.76201 43.1632 4.83437 43.1495 4.90742 43.1497H20.6048C20.6779 43.1495 20.7503 43.1632 20.8178 43.1898C20.8853 43.2164 20.9467 43.2555 20.9984 43.3047C21.0501 43.354 21.0911 43.4126 21.1191 43.477C21.1471 43.5414 21.1615 43.6105 21.1615 43.6803C21.1615 43.75 21.1471 43.8191 21.1191 43.8835C21.0911 43.948 21.0501 44.0065 20.9984 44.0558C20.9467 44.1051 20.8853 44.1441 20.8178 44.1708C20.7503 44.1974 20.6779 44.211 20.6048 44.2109Z" fill="#CCCCCC"/>
<path d="M20.6048 46.9966H4.90742C4.83437 46.9967 4.76201 46.9831 4.69448 46.9565C4.62696 46.9299 4.56559 46.8908 4.51389 46.8415C4.46219 46.7922 4.42117 46.7337 4.39319 46.6692C4.3652 46.6048 4.3508 46.5357 4.3508 46.466C4.3508 46.3962 4.3652 46.3271 4.39319 46.2627C4.42117 46.1983 4.46219 46.1397 4.51389 46.0905C4.56559 46.0412 4.62696 46.0021 4.69448 45.9755C4.76201 45.9489 4.83437 45.9352 4.90742 45.9354H20.6048C20.6779 45.9352 20.7503 45.9489 20.8178 45.9755C20.8853 46.0021 20.9467 46.0412 20.9984 46.0905C21.0501 46.1397 21.0911 46.1983 21.1191 46.2627C21.1471 46.3271 21.1615 46.3962 21.1615 46.466C21.1615 46.5357 21.1471 46.6048 21.1191 46.6692C21.0911 46.7337 21.0501 46.7922 20.9984 46.8415C20.9467 46.8908 20.8853 46.9299 20.8178 46.9565C20.7503 46.9831 20.6779 46.9967 20.6048 46.9966Z" fill="#CCCCCC"/>
<path d="M20.6048 49.7823H4.90742C4.83437 49.7824 4.76201 49.7688 4.69448 49.7422C4.62696 49.7156 4.56559 49.6765 4.51389 49.6272C4.46219 49.5779 4.42117 49.5194 4.39319 49.455C4.3652 49.3905 4.3508 49.3214 4.3508 49.2517C4.3508 49.1819 4.3652 49.1129 4.39319 49.0484C4.42117 48.984 4.46219 48.9254 4.51389 48.8762C4.56559 48.8269 4.62696 48.7878 4.69448 48.7612C4.76201 48.7346 4.83437 48.7209 4.90742 48.7211H20.6048C20.6779 48.7209 20.7503 48.7346 20.8178 48.7612C20.8853 48.7878 20.9467 48.8269 20.9984 48.8762C21.0501 48.9254 21.0911 48.984 21.1191 49.0484C21.1471 49.1129 21.1615 49.1819 21.1615 49.2517C21.1615 49.3214 21.1471 49.3905 21.1191 49.455C21.0911 49.5194 21.0501 49.5779 20.9984 49.6272C20.9467 49.6765 20.8853 49.7156 20.8178 49.7422C20.7503 49.7688 20.6779 49.7824 20.6048 49.7823Z" fill="#CCCCCC"/>
<path d="M20.6048 52.568H4.90742C4.83437 52.5681 4.76201 52.5545 4.69448 52.5279C4.62696 52.5013 4.56559 52.4622 4.51389 52.4129C4.46219 52.3636 4.42117 52.3051 4.39319 52.2407C4.3652 52.1762 4.3508 52.1071 4.3508 52.0374C4.3508 51.9676 4.3652 51.8986 4.39319 51.8341C4.42117 51.7697 4.46219 51.7111 4.51389 51.6619C4.56559 51.6126 4.62696 51.5735 4.69448 51.5469C4.76201 51.5203 4.83437 51.5067 4.90742 51.5068H20.6048C20.6779 51.5067 20.7503 51.5203 20.8178 51.5469C20.8853 51.5735 20.9467 51.6126 20.9984 51.6619C21.0501 51.7111 21.0911 51.7697 21.1191 51.8341C21.1471 51.8986 21.1615 51.9676 21.1615 52.0374C21.1615 52.1071 21.1471 52.1762 21.1191 52.2407C21.0911 52.3051 21.0501 52.3636 20.9984 52.4129C20.9467 52.4622 20.8853 52.5013 20.8178 52.5279C20.7503 52.5545 20.6779 52.5681 20.6048 52.568Z" fill="#CCCCCC"/>
<path d="M20.6048 55.3537H4.90742C4.83437 55.3538 4.76201 55.3402 4.69448 55.3136C4.62696 55.287 4.56559 55.2479 4.51389 55.1986C4.46219 55.1493 4.42117 55.0908 4.39319 55.0264C4.3652 54.9619 4.3508 54.8929 4.3508 54.8231C4.3508 54.7533 4.3652 54.6843 4.39319 54.6198C4.42117 54.5554 4.46219 54.4969 4.51389 54.4476C4.56559 54.3983 4.62696 54.3592 4.69448 54.3326C4.76201 54.306 4.83437 54.2924 4.90742 54.2925H20.6048C20.6779 54.2924 20.7503 54.306 20.8178 54.3326C20.8853 54.3592 20.9467 54.3983 20.9984 54.4476C21.0501 54.4969 21.0911 54.5554 21.1191 54.6198C21.1471 54.6843 21.1615 54.7533 21.1615 54.8231C21.1615 54.8929 21.1471 54.9619 21.1191 55.0264C21.0911 55.0908 21.0501 55.1493 20.9984 55.1986C20.9467 55.2479 20.8853 55.287 20.8178 55.3136C20.7503 55.3402 20.6779 55.3538 20.6048 55.3537Z" fill="#CCCCCC"/>
<path d="M33.0278 75.5347V69.8148C33.028 69.6565 33.0939 69.5048 33.2111 69.3929C33.3283 69.281 33.4872 69.218 33.6529 69.2178H38.7289C38.8946 69.218 39.0535 69.281 39.1707 69.3929C39.2879 69.5048 39.3538 69.6565 39.354 69.8148V75.5347C39.3538 75.693 39.2879 75.8447 39.1707 75.9566C39.0535 76.0685 38.8946 76.1315 38.7289 76.1317H33.6529C33.4872 76.1315 33.3283 76.0685 33.2111 75.9566C33.0939 75.8447 33.028 75.693 33.0278 75.5347Z" fill="#E6E6E6"/>
<path d="M34.8562 73.6299V67.91C34.8564 67.7517 34.9224 67.6 35.0395 67.4881C35.1567 67.3762 35.3156 67.3132 35.4814 67.313H40.5573C40.7231 67.3132 40.882 67.3762 40.9992 67.4881C41.1163 67.6 41.1823 67.7517 41.1825 67.91V73.6299C41.1823 73.7882 41.1163 73.9399 40.9992 74.0518C40.882 74.1638 40.7231 74.2267 40.5573 74.2269H35.4814C35.3156 74.2267 35.1567 74.1638 35.0395 74.0518C34.9224 73.9399 34.8564 73.7882 34.8562 73.6299Z" fill="#2218DE"/>
<path d="M57.6104 71.7997C57.4194 71.6943 57.2549 71.5502 57.1286 71.3776C57.0022 71.2049 56.917 71.0079 56.879 70.8004C56.841 70.5929 56.8511 70.38 56.9086 70.1766C56.9661 69.9732 57.0696 69.7844 57.2118 69.6233L55.6384 58.6411L58.9159 58.7947L59.4305 69.5067C59.698 69.7528 59.8616 70.084 59.8905 70.4376C59.9193 70.7912 59.8114 71.1426 59.587 71.4252C59.3627 71.7079 59.0375 71.9021 58.6732 71.9711C58.3089 72.0402 57.9308 71.9792 57.6104 71.7997Z" fill="#A0616A"/>
<path d="M59.3657 58.9411C59.2986 59.0166 59.2125 59.0747 59.1155 59.11L56.1701 60.1835C56.0222 60.2374 55.8582 60.2351 55.712 60.1771C55.5658 60.1191 55.4484 60.0098 55.3841 59.8716L52.775 54.2724C52.5244 53.753 52.4818 53.164 52.6551 52.6166C52.7832 52.226 53.0193 51.8755 53.3385 51.6023C53.6577 51.329 54.0482 51.143 54.4688 51.0639C54.7923 51.0003 55.1264 51.0048 55.4479 51.0771C55.8331 51.1591 56.1909 51.3315 56.4887 51.5788C56.7866 51.8261 57.0152 52.1403 57.1539 52.4932L59.4737 58.3488C59.5127 58.4477 59.5233 58.5548 59.5043 58.659C59.4853 58.7631 59.4374 58.8605 59.3657 58.9411Z" fill="#CCCCCC"/>
<path d="M44.0171 98.6048H41.9792L41.2404 91.0634L44.0174 91.0989L44.0171 98.6048Z" fill="#A0616A"/>
<path d="M40.5236 98.0487H44.4538V100.412H38.0491C38.0491 100.101 38.1131 99.7941 38.2375 99.5074C38.3618 99.2207 38.5441 98.9602 38.7739 98.7408C39.0037 98.5214 39.2765 98.3473 39.5767 98.2286C39.8769 98.1098 40.1987 98.0487 40.5236 98.0487Z" fill="#2F2E41"/>
<path d="M53.4919 98.6048H51.454L50.4845 91.0988L53.4922 91.0989L53.4919 98.6048Z" fill="#A0616A"/>
<path d="M49.9984 98.0487H53.9285V100.412H47.5238C47.5238 100.101 47.5878 99.7941 47.7122 99.5074C47.8366 99.2207 48.0188 98.9602 48.2486 98.7408C48.4784 98.5214 48.7512 98.3473 49.0514 98.2286C49.3516 98.1098 49.6734 98.0487 49.9984 98.0487Z" fill="#2F2E41"/>
<path d="M53.7482 95.9342L50.5475 95.7079C50.3655 95.6948 50.1947 95.6187 50.0673 95.4939C49.9399 95.3691 49.8646 95.2041 49.8556 95.0301L49.142 80.9459C49.1351 80.8107 49.0768 80.6826 48.978 80.5855C48.8793 80.4885 48.7468 80.4292 48.6055 80.4188C48.4642 80.4084 48.3238 80.4476 48.2107 80.5291C48.0975 80.6105 48.0194 80.7286 47.9909 80.8612L45.0136 94.7354C44.9768 94.9061 44.8759 95.058 44.73 95.1627C44.5841 95.2674 44.4032 95.3176 44.2212 95.3039L41.328 95.0829C41.2288 95.0753 41.1323 95.049 41.0439 95.0053C40.9556 94.9617 40.8772 94.9017 40.8135 94.8287C40.7497 94.7558 40.7018 94.6715 40.6726 94.5807C40.6434 94.4899 40.6334 94.3945 40.6433 94.2999L43.3275 68.6688C43.338 68.5686 43.3705 68.4716 43.423 68.3843C43.4755 68.297 43.5467 68.2212 43.632 68.162C43.7172 68.1029 43.8147 68.0615 43.9179 68.0408C44.021 68.0201 44.1276 68.0205 44.2307 68.0419L54.4378 70.1607C54.6068 70.1962 54.7578 70.2864 54.8652 70.416C54.9725 70.5457 55.0296 70.7068 55.0267 70.8721L54.5513 95.2353C54.5476 95.4221 54.4674 95.6 54.3279 95.7311C54.1884 95.8621 54.0008 95.9357 53.8051 95.9362C53.7862 95.9362 53.7672 95.9355 53.7482 95.9342Z" fill="#2F2E41"/>
<path d="M50.948 47.2379C53.2028 47.2379 55.0307 45.4924 55.0307 43.3393C55.0307 41.1862 53.2028 39.4407 50.948 39.4407C48.6933 39.4407 46.8654 41.1862 46.8654 43.3393C46.8654 45.4924 48.6933 47.2379 50.948 47.2379Z" fill="#A0616A"/>
<path d="M44.6136 70.6453C44.221 70.3091 43.9094 69.8958 43.7001 69.4336C43.4908 68.9715 43.3888 68.4715 43.4012 67.9681C43.4012 62.3648 48.4803 49.8462 48.6395 49.4556C48.6551 49.3615 48.7891 49.3209 49.4922 48.8673C50.1957 48.4135 51.2101 48.3437 52.5074 48.6601C52.6392 48.6923 52.7593 48.7585 52.8546 48.8513C52.9498 48.9442 53.0166 49.0602 53.0476 49.1868L53.2889 49.5198C53.3099 49.6042 53.3513 49.6827 53.4099 49.7491C53.4685 49.8154 53.5426 49.8677 53.6262 49.9017C54.6723 50.3226 57.9975 52.2633 56.8644 59.567C55.8119 66.3517 55.3847 70.3418 55.25 71.7424C55.2341 71.9086 55.1577 72.0643 55.034 72.1822C54.9103 72.3001 54.7472 72.3728 54.5732 72.3878C54.0603 72.4316 53.1799 72.4899 52.1314 72.4899C49.7011 72.4899 46.3674 72.1768 44.6136 70.6453Z" fill="#CCCCCC"/>
<path d="M39.7353 68.5694C39.6382 68.3802 39.5857 68.1731 39.5815 67.9624C39.5773 67.7518 39.6215 67.5429 39.7111 67.3504C39.8006 67.1579 39.9332 66.9864 40.0997 66.8481C40.2661 66.7099 40.4622 66.6081 40.6743 66.5501L45.7762 56.5936L48.4081 58.4652L42.5846 67.6338C42.6631 67.9805 42.6058 68.3426 42.4234 68.6515C42.241 68.9605 41.9463 69.1948 41.5951 69.3101C41.2439 69.4255 40.8606 69.4138 40.5178 69.2772C40.175 69.1407 39.8966 68.8888 39.7353 68.5694Z" fill="#A0616A"/>
<path d="M48.6962 58.826C48.5964 58.853 48.491 58.8555 48.3899 58.8332L45.3177 58.1573C45.1634 58.1234 45.0286 58.0343 44.941 57.9083C44.8535 57.7823 44.8198 57.6291 44.847 57.4801L45.9478 51.4424C46.0428 50.8778 46.3511 50.366 46.8144 50.0037C47.1488 49.7475 47.5493 49.5821 47.9738 49.5251C48.3983 49.468 48.8311 49.5214 49.2265 49.6795C49.5323 49.7988 49.8071 49.9804 50.0318 50.2114C50.3038 50.4845 50.5003 50.818 50.6033 51.1818C50.7064 51.5457 50.7128 51.9283 50.622 52.2951L49.1315 58.3917C49.1061 58.4946 49.0524 58.5891 48.9759 58.6655C48.8993 58.7419 48.8028 58.7973 48.6962 58.826Z" fill="#CCCCCC"/>
<path d="M49.9922 46.8617C49.7935 46.6681 49.6468 46.4315 49.5646 46.1721C49.4824 45.9126 49.4672 45.6381 49.5202 45.3718C49.6626 44.6607 49.7462 44.1955 49.762 44.0263C49.8162 43.4473 49.2033 42.9786 48.5968 42.904C48.5733 42.901 48.5536 42.8991 48.5372 42.8978C48.5526 42.9123 48.5692 42.9271 48.5838 42.9402C48.699 43.0435 48.8424 43.1722 48.8083 43.3049C48.7878 43.3848 48.7113 43.4416 48.5745 43.4781C47.626 43.7315 46.8955 43.4989 46.2755 42.7453C46.1012 42.5312 45.9814 42.2814 45.9256 42.0155C45.7035 40.975 46.2953 40.0881 46.8308 39.5273C47.2724 39.0649 47.9883 38.5037 48.891 38.4556C49.5931 38.4181 50.4279 38.8039 50.6777 39.4991C50.7956 39.3323 50.9525 39.194 51.136 39.0952C51.3196 38.9964 51.5247 38.9398 51.7351 38.9299C52.2144 38.9199 52.6861 39.0452 53.0912 39.29C55.0708 40.3729 55.9216 42.9523 54.9491 44.923C54.3373 46.1625 53.0119 47.0853 51.49 47.3313C51.3947 47.3467 51.2982 47.3545 51.2016 47.3545C50.9757 47.3542 50.7521 47.3104 50.5443 47.2257C50.3365 47.141 50.1487 47.0172 49.9922 46.8617Z" fill="#2F2E41"/>
<path d="M30.8475 100.5H63.2611C63.3052 100.5 63.3475 100.483 63.3786 100.454C63.4098 100.424 63.4273 100.383 63.4273 100.341C63.4273 100.299 63.4098 100.259 63.3786 100.229C63.3475 100.199 63.3052 100.183 63.2611 100.183H30.8475C30.8034 100.183 30.7612 100.199 30.73 100.229C30.6988 100.259 30.6813 100.299 30.6813 100.341C30.6813 100.383 30.6988 100.424 30.73 100.454C30.7612 100.483 30.8034 100.5 30.8475 100.5Z" fill="#3F3D56"/>
</g>
<defs>
<clipPath id="clip0_75_225">
<rect width="100" height="100" fill="white" transform="translate(0 0.5)"/>
</clipPath>
</defs>
</svg>
