<svg width="600" height="600" viewBox="0 0 600 600" fill="none" xmlns="http://www.w3.org/2000/svg">
<g clip-path="url(#clip0_89_359)">
<path d="M600 598.269C600 599.229 599.422 600 598.703 600H1.29677C0.577552 600 0 599.229 0 598.269C0 597.309 0.577552 596.538 1.29677 596.538H598.703C599.422 596.538 600 597.309 600 598.269Z" fill="#2E2E43"/>
<path d="M475.836 123.339H124.311C119.452 123.339 115.499 118.062 115.499 111.576V75.4221C115.499 68.9361 119.452 63.6593 124.311 63.6593H475.836C480.695 63.6593 484.647 68.9361 484.647 75.4221V111.576C484.647 118.062 480.695 123.339 475.836 123.339Z" fill="white" stroke="#BAB7C9" stroke-width="2" stroke-linecap="round" stroke-linejoin="round"/>
<path d="M475.836 346.214H124.311C119.452 346.214 115.499 340.937 115.499 334.451V298.297C115.499 291.811 119.452 286.534 124.311 286.534H475.836C480.695 286.534 484.647 291.811 484.647 298.297V334.451C484.647 340.937 480.695 346.214 475.836 346.214Z" fill="white" stroke="#BAB7C9" stroke-width="2" stroke-linecap="round" stroke-linejoin="round"/>
<path d="M226.29 506.235H123.221C118.362 506.235 114.409 500.958 114.409 494.472V458.318C114.409 451.832 118.362 446.555 123.221 446.555H226.29C231.149 446.555 235.101 451.832 235.101 458.318V494.472C235.101 500.958 231.149 506.235 226.29 506.235Z" fill="#2218DE"/>
<path d="M116.271 1.45474H193.369" stroke="#BAB7C9" stroke-width="2" stroke-linecap="round" stroke-linejoin="round"/>
<path d="M116.271 224.329H259.487" stroke="#BAB7C9" stroke-width="2" stroke-linecap="round" stroke-linejoin="round"/>
<path d="M433.307 534.24L421.183 544.586L432.177 567.544L444.301 557.197L433.307 534.24Z" fill="#F1A1A4"/>
<path d="M394.858 225.633L379.543 232.614L379.302 203.093L393.239 202.886L394.858 225.633Z" fill="#F1A1A4"/>
<path d="M381.091 211.245C389.549 211.245 396.406 202.091 396.406 190.8C396.406 179.508 389.549 170.355 381.091 170.355C372.632 170.355 365.776 179.508 365.776 190.8C365.776 202.091 372.632 211.245 381.091 211.245Z" fill="#F1A1A4"/>
<path d="M385.281 188.715C382.723 188.649 381.006 185.224 379.981 182.073C378.956 178.94 377.903 175.318 375.521 174.044C373.571 173.006 370.207 180.252 368.652 178.365C367.033 176.393 368.511 166.09 370.2 164.232C371.889 162.373 374.207 161.977 376.384 161.798C381.719 161.392 387.084 161.883 392.328 163.269C395.564 164.119 398.914 165.43 401.268 168.515C404.257 172.431 405.063 178.393 405.317 183.969C405.586 189.677 405.381 195.659 403.346 200.697C401.303 205.726 396.985 209.471 392.794 208.264C392.349 205.235 392.745 202.131 392.886 199.036C393.027 195.961 392.822 192.64 391.395 190.206C389.967 187.771 386.956 186.847 385.338 189.045" fill="#2F2E43"/>
<path d="M404.18 195.517C405.699 193.998 407.515 192.715 409.402 192.998C411.445 193.291 413.184 195.517 413.728 198.159C414.272 200.801 413.707 203.725 412.47 205.914C411.233 208.103 409.374 209.556 407.395 210.301C406.25 210.735 404.999 210.915 403.897 210.301C402.279 209.396 401.388 206.669 402.003 204.471" fill="#2F2E43"/>
<path d="M347.188 388.664C346.227 395.391 348.142 401.505 351.478 402.307C354.807 403.109 358.291 398.297 359.259 391.57C359.676 388.891 359.585 386.117 358.991 383.485L370.772 278.043L354.899 274.306L349.676 381.258C348.397 383.447 347.542 385.985 347.188 388.693L347.188 388.664Z" fill="#F1A1A4"/>
<path d="M379.26 219.066L368.447 219.227C360.814 220.878 358.786 226.359 357.139 236.436C354.616 251.805 351.394 272.287 352.072 272.57C353.153 273.042 371.649 284.326 381.013 281.533L379.267 219.066L379.26 219.066Z" fill="#2218DE"/>
<path d="M392.541 554.199L378.152 554.413L378.38 581.659L392.769 581.444L392.541 554.199Z" fill="#F1A1A4"/>
<path d="M364.468 598.369C362.949 598.398 361.613 598.369 360.595 598.256C356.765 597.851 353.097 594.133 351.238 591.963C350.404 590.991 350.128 589.406 350.545 588.048C350.842 587.076 351.45 586.331 352.213 586.019L362.284 582.019L378.518 567.046L378.702 567.48C378.772 567.641 380.412 571.481 380.97 574.085C381.182 575.075 381.14 575.896 380.829 576.538C380.617 576.981 380.32 577.245 380.08 577.405C380.377 577.811 381.31 578.641 384.179 579.207C388.349 580.038 389.19 574.245 389.218 574L389.246 573.801L389.366 573.688C391.338 571.943 392.547 571.16 392.971 571.32C393.239 571.414 393.67 571.594 394.985 587.293C395.105 587.784 395.967 591.388 395.43 594.86C394.851 598.634 382.518 597.511 380.059 597.256C379.988 597.265 370.772 598.284 364.454 598.369H364.475L364.468 598.369Z" fill="#2F2E43"/>
<path d="M417.593 593.841C415.904 593.869 414.35 593.614 413.24 593.369C412.152 593.124 411.289 591.982 411.106 590.529C410.964 589.482 411.197 588.435 411.713 587.642L418.668 577.132L426.498 552.96L426.83 553.196C426.951 553.281 429.862 555.385 431.375 557.196C431.947 557.885 432.237 558.612 432.237 559.385C432.237 559.914 432.089 560.348 431.94 560.64C432.357 560.772 433.474 560.81 436.131 559.272C439.997 557.027 438.414 551.517 438.343 551.3L438.287 551.111L438.35 550.941C439.333 548.073 440.053 546.545 440.47 546.375C440.739 546.28 441.17 546.101 448.513 558.498C448.81 558.829 450.973 561.272 451.891 564.593C452.888 568.207 441.997 575.962 439.792 577.481C439.728 577.556 428.343 588.85 423.664 592.086C421.806 593.369 419.593 593.794 417.579 593.812L417.6 593.841L417.593 593.841Z" fill="#2F2E43"/>
<path d="M401.211 326.131L360.927 326.726L357.69 376.805L375.225 561.423L395.791 561.112L386.681 454.471L420.844 550.375L438.979 533.015L412.18 443.404C412.18 443.404 420.837 364.87 413.36 345.453C405.89 326.037 401.218 326.103 401.218 326.103V326.131L401.211 326.131Z" fill="#2F2E43"/>
<path d="M421.268 328.886L357.288 329.839L375.564 219.132L403.445 218.708L421.268 328.886Z" fill="#2218DE"/>
<path d="M427.516 387.476C428.59 394.184 426.774 400.345 423.459 401.241C420.138 402.147 416.576 397.439 415.509 390.731C415.049 388.061 415.092 385.287 415.636 382.636L402.095 277.561L417.897 273.354L424.901 380.135C426.216 382.287 427.113 384.806 427.516 387.494V387.476Z" fill="#F1A1A4"/>
<path d="M392.639 218.868L403.452 218.708C411.106 220.142 413.226 225.557 415.049 235.586C417.827 250.88 421.382 271.25 420.717 271.561C419.636 272.052 401.346 283.883 391.939 281.373L392.653 218.868L392.639 218.868Z" fill="#2218DE"/>
</g>
<defs>
<clipPath id="clip0_89_359">
<rect width="600" height="600" fill="white"/>
</clipPath>
</defs>
</svg>
