<svg width="135" height="141" viewBox="0 0 135 141" fill="none" xmlns="http://www.w3.org/2000/svg">
<rect x="20.5" y="3" width="94" height="94" rx="47" fill="#FFFEFE"/>
<rect x="20.5" y="3" width="94" height="94" rx="47" stroke="#2218DE" stroke-width="6"/>
<path d="M40 27V57.5168L34.2975 62.7233C33.1546 63.7466 32.5084 65.1356 32.5 66.5865C32.5092 68.0197 33.1459 69.3918 34.2719 70.4053C35.3979 71.4187 36.9226 71.9917 38.515 72H96.485C98.0774 71.9917 99.6021 71.4187 100.728 70.4053C101.854 69.3918 102.491 68.0197 102.5 66.5865C102.49 65.1345 101.844 63.7446 100.702 62.7188L95 57.5145V27H40ZM45 31.5H90V56.25H45V31.5ZM65 36V42.75H57.5V47.25H65V54H70V47.25H77.5V42.75H70V36H65ZM43.5925 60.75H91.405L97.1875 65.8823C97.3869 66.073 97.4986 66.3246 97.5 66.5865C97.5072 66.7082 97.4859 66.8298 97.4374 66.9436C97.389 67.0574 97.3145 67.1607 97.2187 67.2469C97.123 67.333 97.0082 67.4001 96.8818 67.4437C96.7554 67.4873 96.6202 67.5065 96.485 67.5H38.515C38.3798 67.5065 38.2446 67.4873 38.1182 67.4437C37.9918 67.4001 37.877 67.333 37.7813 67.2469C37.6855 67.1607 37.611 67.0574 37.5626 66.9436C37.5141 66.8298 37.4928 66.7082 37.5 66.5865C37.5 66.339 37.6175 66.06 37.8125 65.8823L43.5925 60.75Z" fill="#2218DE"/>
<path d="M1.93359 135V120.723H4.96094V132.5H10.752V135H1.93359ZM17.4805 123.857C18.9453 123.857 20.0684 124.176 20.8496 124.814C21.6309 125.452 22.0215 126.423 22.0215 127.725V135H19.9414L19.3652 133.516H19.2871C18.9746 133.906 18.6556 134.225 18.3301 134.473C18.0046 134.72 17.6302 134.902 17.207 135.02C16.7839 135.137 16.2695 135.195 15.6641 135.195C15.0195 135.195 14.4401 135.072 13.9258 134.824C13.418 134.577 13.0176 134.199 12.7246 133.691C12.4316 133.177 12.2852 132.526 12.2852 131.738C12.2852 130.579 12.6921 129.727 13.5059 129.18C14.3197 128.626 15.5404 128.32 17.168 128.262L19.0625 128.203V127.725C19.0625 127.152 18.9128 126.732 18.6133 126.465C18.3138 126.198 17.8971 126.064 17.3633 126.064C16.8359 126.064 16.3184 126.139 15.8105 126.289C15.3027 126.439 14.7949 126.628 14.2871 126.855L13.3008 124.844C13.8802 124.538 14.528 124.297 15.2441 124.121C15.9668 123.945 16.7122 123.857 17.4805 123.857ZM19.0625 129.941L17.9102 129.98C16.9466 130.007 16.276 130.179 15.8984 130.498C15.5273 130.817 15.3418 131.237 15.3418 131.758C15.3418 132.214 15.4753 132.539 15.7422 132.734C16.0091 132.923 16.3574 133.018 16.7871 133.018C17.4251 133.018 17.9622 132.829 18.3984 132.451C18.8411 132.074 19.0625 131.536 19.0625 130.84V129.941ZM31.1719 123.877C32.4023 123.877 33.3952 124.355 34.1504 125.312C34.9121 126.27 35.293 127.673 35.293 129.521C35.293 130.758 35.1139 131.8 34.7559 132.646C34.3978 133.486 33.903 134.121 33.2715 134.551C32.64 134.98 31.9141 135.195 31.0938 135.195C30.5664 135.195 30.1139 135.13 29.7363 135C29.3587 134.863 29.0365 134.691 28.7695 134.482C28.5026 134.268 28.2715 134.04 28.0762 133.799H27.9199C27.972 134.059 28.0111 134.326 28.0371 134.6C28.0632 134.873 28.0762 135.14 28.0762 135.4V139.805H25.0977V124.082H27.5195L27.9395 125.498H28.0762C28.2715 125.205 28.5091 124.935 28.7891 124.688C29.069 124.44 29.4043 124.245 29.7949 124.102C30.1921 123.952 30.651 123.877 31.1719 123.877ZM30.2148 126.26C29.694 126.26 29.2806 126.367 28.9746 126.582C28.6686 126.797 28.444 127.119 28.3008 127.549C28.1641 127.979 28.0892 128.522 28.0762 129.18V129.502C28.0762 130.205 28.1413 130.801 28.2715 131.289C28.4082 131.777 28.6328 132.148 28.9453 132.402C29.2643 132.656 29.7005 132.783 30.2539 132.783C30.7096 132.783 31.084 132.656 31.377 132.402C31.6699 132.148 31.888 131.777 32.0312 131.289C32.181 130.794 32.2559 130.192 32.2559 129.482C32.2559 128.415 32.0898 127.611 31.7578 127.07C31.4258 126.53 30.9115 126.26 30.2148 126.26ZM42.3535 132.822C42.679 132.822 42.9948 132.79 43.3008 132.725C43.6133 132.66 43.9225 132.578 44.2285 132.48V134.697C43.9095 134.84 43.5124 134.958 43.0371 135.049C42.5684 135.146 42.054 135.195 41.4941 135.195C40.8431 135.195 40.2572 135.091 39.7363 134.883C39.222 134.668 38.8151 134.3 38.5156 133.779C38.2227 133.252 38.0762 132.52 38.0762 131.582V126.318H36.6504V125.059L38.291 124.062L39.1504 121.758H41.0547V124.082H44.1113V126.318H41.0547V131.582C41.0547 131.999 41.1719 132.311 41.4062 132.52C41.6471 132.721 41.9629 132.822 42.3535 132.822ZM56.3672 129.521C56.3672 130.433 56.2435 131.24 55.9961 131.943C55.7552 132.646 55.4004 133.242 54.9316 133.73C54.4694 134.212 53.9095 134.577 53.252 134.824C52.6009 135.072 51.8652 135.195 51.0449 135.195C50.2767 135.195 49.5703 135.072 48.9258 134.824C48.2878 134.577 47.7311 134.212 47.2559 133.73C46.7871 133.242 46.4225 132.646 46.1621 131.943C45.9082 131.24 45.7812 130.433 45.7812 129.521C45.7812 128.311 45.9961 127.285 46.4258 126.445C46.8555 125.605 47.4674 124.967 48.2617 124.531C49.056 124.095 50.0033 123.877 51.1035 123.877C52.1257 123.877 53.0306 124.095 53.8184 124.531C54.6126 124.967 55.2344 125.605 55.6836 126.445C56.1393 127.285 56.3672 128.311 56.3672 129.521ZM48.8184 129.521C48.8184 130.238 48.8965 130.84 49.0527 131.328C49.209 131.816 49.4531 132.184 49.7852 132.432C50.1172 132.679 50.5501 132.803 51.084 132.803C51.6113 132.803 52.0378 132.679 52.3633 132.432C52.6953 132.184 52.9362 131.816 53.0859 131.328C53.2422 130.84 53.3203 130.238 53.3203 129.521C53.3203 128.799 53.2422 128.2 53.0859 127.725C52.9362 127.243 52.6953 126.882 52.3633 126.641C52.0312 126.4 51.5983 126.279 51.0645 126.279C50.2767 126.279 49.7038 126.549 49.3457 127.09C48.9941 127.63 48.8184 128.441 48.8184 129.521ZM64.9023 123.877C66.1328 123.877 67.1257 124.355 67.8809 125.312C68.6426 126.27 69.0234 127.673 69.0234 129.521C69.0234 130.758 68.8444 131.8 68.4863 132.646C68.1283 133.486 67.6335 134.121 67.002 134.551C66.3704 134.98 65.6445 135.195 64.8242 135.195C64.2969 135.195 63.8444 135.13 63.4668 135C63.0892 134.863 62.7669 134.691 62.5 134.482C62.2331 134.268 62.002 134.04 61.8066 133.799H61.6504C61.7025 134.059 61.7415 134.326 61.7676 134.6C61.7936 134.873 61.8066 135.14 61.8066 135.4V139.805H58.8281V124.082H61.25L61.6699 125.498H61.8066C62.002 125.205 62.2396 124.935 62.5195 124.688C62.7995 124.44 63.1348 124.245 63.5254 124.102C63.9225 123.952 64.3815 123.877 64.9023 123.877ZM63.9453 126.26C63.4245 126.26 63.0111 126.367 62.7051 126.582C62.3991 126.797 62.1745 127.119 62.0312 127.549C61.8945 127.979 61.8197 128.522 61.8066 129.18V129.502C61.8066 130.205 61.8717 130.801 62.002 131.289C62.1387 131.777 62.3633 132.148 62.6758 132.402C62.9948 132.656 63.431 132.783 63.9844 132.783C64.4401 132.783 64.8145 132.656 65.1074 132.402C65.4004 132.148 65.6185 131.777 65.7617 131.289C65.9115 130.794 65.9863 130.192 65.9863 129.482C65.9863 128.415 65.8203 127.611 65.4883 127.07C65.1562 126.53 64.6419 126.26 63.9453 126.26ZM82.959 135L79.5215 123.799H79.4336C79.4466 124.066 79.4661 124.469 79.4922 125.01C79.5247 125.544 79.554 126.113 79.5801 126.719C79.6061 127.324 79.6191 127.871 79.6191 128.359V135H76.9141V120.723H81.0352L84.4141 131.641H84.4727L88.0566 120.723H92.1777V135H89.3555V128.242C89.3555 127.793 89.362 127.275 89.375 126.689C89.3945 126.104 89.4173 125.547 89.4434 125.02C89.4694 124.486 89.4889 124.085 89.502 123.818H89.4141L85.7324 135H82.959ZM100.049 123.877C101.058 123.877 101.927 124.072 102.656 124.463C103.385 124.847 103.949 125.407 104.346 126.143C104.743 126.878 104.941 127.777 104.941 128.838V130.283H97.9004C97.9329 131.123 98.1836 131.784 98.6523 132.266C99.1276 132.741 99.7852 132.979 100.625 132.979C101.322 132.979 101.96 132.907 102.539 132.764C103.118 132.62 103.714 132.406 104.326 132.119V134.424C103.786 134.691 103.219 134.886 102.627 135.01C102.041 135.133 101.328 135.195 100.488 135.195C99.3945 135.195 98.4245 134.993 97.5781 134.59C96.7383 134.186 96.0775 133.571 95.5957 132.744C95.1204 131.917 94.8828 130.876 94.8828 129.619C94.8828 128.343 95.0977 127.282 95.5273 126.436C95.9635 125.583 96.569 124.945 97.3438 124.521C98.1185 124.092 99.0202 123.877 100.049 123.877ZM100.068 125.996C99.4889 125.996 99.0072 126.182 98.623 126.553C98.2454 126.924 98.0273 127.507 97.9688 128.301H102.148C102.142 127.858 102.061 127.464 101.904 127.119C101.755 126.774 101.527 126.501 101.221 126.299C100.921 126.097 100.537 125.996 100.068 125.996ZM110.82 135.195C109.603 135.195 108.61 134.72 107.842 133.77C107.08 132.812 106.699 131.41 106.699 129.561C106.699 127.692 107.087 126.279 107.861 125.322C108.636 124.359 109.648 123.877 110.898 123.877C111.419 123.877 111.878 123.949 112.275 124.092C112.673 124.235 113.014 124.427 113.301 124.668C113.594 124.909 113.841 125.179 114.043 125.479H114.141C114.102 125.27 114.053 124.964 113.994 124.561C113.942 124.15 113.916 123.73 113.916 123.301V119.805H116.904V135H114.619L114.043 133.584H113.916C113.727 133.883 113.49 134.157 113.203 134.404C112.923 134.645 112.588 134.837 112.197 134.98C111.807 135.124 111.348 135.195 110.82 135.195ZM111.865 132.822C112.679 132.822 113.252 132.581 113.584 132.1C113.923 131.611 114.102 130.879 114.121 129.902V129.58C114.121 128.519 113.958 127.708 113.633 127.148C113.307 126.582 112.702 126.299 111.816 126.299C111.159 126.299 110.645 126.582 110.273 127.148C109.902 127.715 109.717 128.532 109.717 129.6C109.717 130.667 109.902 131.471 110.273 132.012C110.651 132.552 111.182 132.822 111.865 132.822ZM122.998 124.082V135H120.02V124.082H122.998ZM121.514 119.805C121.956 119.805 122.337 119.909 122.656 120.117C122.975 120.319 123.135 120.7 123.135 121.26C123.135 121.813 122.975 122.197 122.656 122.412C122.337 122.62 121.956 122.725 121.514 122.725C121.064 122.725 120.68 122.62 120.361 122.412C120.049 122.197 119.893 121.813 119.893 121.26C119.893 120.7 120.049 120.319 120.361 120.117C120.68 119.909 121.064 119.805 121.514 119.805ZM130.566 135.195C129.486 135.195 128.564 135 127.803 134.609C127.041 134.212 126.462 133.6 126.064 132.773C125.667 131.947 125.469 130.889 125.469 129.6C125.469 128.265 125.693 127.178 126.143 126.338C126.598 125.492 127.227 124.87 128.027 124.473C128.835 124.076 129.769 123.877 130.83 123.877C131.585 123.877 132.236 123.952 132.783 124.102C133.337 124.245 133.818 124.417 134.229 124.619L133.35 126.924C132.881 126.735 132.445 126.582 132.041 126.465C131.637 126.341 131.234 126.279 130.83 126.279C130.309 126.279 129.876 126.403 129.531 126.65C129.186 126.891 128.929 127.256 128.76 127.744C128.59 128.232 128.506 128.844 128.506 129.58C128.506 130.303 128.597 130.902 128.779 131.377C128.962 131.852 129.225 132.207 129.57 132.441C129.915 132.669 130.335 132.783 130.83 132.783C131.449 132.783 131.999 132.702 132.48 132.539C132.962 132.37 133.431 132.135 133.887 131.836V134.385C133.431 134.671 132.952 134.876 132.451 135C131.956 135.13 131.328 135.195 130.566 135.195Z" fill="#2218DE"/>
</svg>
